<?xml version="1.0" encoding="UTF-8"?>
<svg version="1.1" xmlns="http://www.w3.org/2000/svg" width="720" height="720">
<path d="M0 0 C237.6 0 475.2 0 720 0 C720 237.6 720 475.2 720 720 C482.4 720 244.8 720 0 720 C0 482.4 0 244.8 0 0 Z " fill="#FEFEFE" transform="translate(0,0)"/>
<path d="M0 0 C12.87 0.495 12.87 0.495 26 1 C34.76440869 1.30979926 34.76440869 1.30979926 43.52929688 1.60546875 C45.63953929 1.679963 47.74946314 1.76423815 49.85888672 1.85913086 C52.00025542 1.95516457 54.14276373 2.02793649 56.28564453 2.08032227 C64.3028603 2.42567743 70.13802876 4.32326776 77.25 7.9375 C79.53427377 9.04358544 81.82090157 10.14481747 84.109375 11.2421875 C84.72385498 11.53909988 85.33833496 11.83601227 85.97143555 12.141922 C93.52394748 15.77306143 101.2137706 19.08977262 108.89782715 22.43069458 C123.98973546 28.99486406 139.0179666 35.68906418 154 42.5 C167.8325222 48.78695536 181.70241541 54.9775581 195.625 61.0625 C209.2230458 67.00599521 222.78600167 73.02034347 236.3125 79.125 C248.75670994 84.74054638 261.20889273 90.3362522 273.6875 95.875 C274.76605255 96.35379105 274.76605255 96.35379105 275.86639404 96.84225464 C279.61313786 98.50529842 283.36020425 100.16761398 287.10742188 101.82958984 C296.3858078 105.94507936 305.66173197 110.06611429 314.9375 114.1875 C315.90690521 114.61818787 316.87631042 115.04887573 317.87509155 115.49261475 C330.20518943 120.97125344 342.52646201 126.46861046 354.83398438 131.99780273 C366.82511052 137.38006755 378.8394345 142.70997192 390.85198975 148.04418945 C404.28519214 154.00974829 417.71037068 159.99279328 431.125 166 C445.37660133 172.38146848 459.63899474 178.73799254 473.91137695 185.07287598 C481.8790482 188.60966517 489.84590845 192.14827959 497.8125 195.6875 C499.2575441 196.32937759 499.2575441 196.32937759 500.73178101 196.98422241 C511.00537115 201.54817562 521.27614211 206.1182054 531.53515625 210.71484375 C532.37385757 211.09056015 533.2125589 211.46627655 534.07667542 211.8533783 C537.96973882 213.59777168 541.86207531 215.34375749 545.75317383 217.0925293 C557.79561473 222.49376129 569.89330826 227.73622098 582 233 C582 290.42 582 347.84 582 407 C555 419 555 419 543.85546875 423.94921875 C525.25737699 432.20894186 506.6654334 440.48183455 488.09335327 448.79989624 C475.99212872 454.21953675 463.88010336 459.61436422 451.76098633 464.99386597 C441.09700712 469.72787407 430.44323398 474.48413287 419.79595947 479.25558472 C419.01766785 479.60436676 418.23937622 479.9531488 417.4375 480.3125 C416.65759705 480.66200714 415.87769409 481.01151428 415.07415771 481.37161255 C402.27720214 487.10457894 389.45575865 492.78064845 376.625 498.4375 C360.70494186 505.45656946 344.82298327 512.55633049 328.96264648 519.70922852 C316.35661926 525.39422609 303.7295516 531.0297285 291.08642578 536.63183594 C285.93084037 538.91722596 280.7780587 541.20891992 275.625 543.5 C268.13165054 546.83106724 260.63780871 550.16102027 253.14312744 553.48908997 C248.30358973 555.63819554 243.46424944 557.7877454 238.625 559.9375 C237.6414856 560.37440155 236.65797119 560.8113031 235.64465332 561.26144409 C224.21195537 566.34088214 212.78516717 571.43264524 201.375 576.5625 C189.66946821 581.82483099 177.93046524 587.00939982 166.1875 592.1875 C150.31036709 599.18886183 134.46939921 606.26634608 118.65258789 613.40283203 C105.43667481 619.36417893 92.19425945 625.26453533 78.93969727 631.1394043 C78.21527939 631.46063263 77.49086151 631.78186096 76.74449158 632.11282349 C75.39465415 632.71125739 74.04461902 633.30924561 72.6943512 633.90670776 C70.44397485 634.9041537 68.20200265 635.89899867 66 637 C64.4475727 637.17511667 62.88884716 637.2959022 61.3293457 637.38891602 C59.87060783 637.4788961 59.87060783 637.4788961 58.38240051 637.57069397 C57.32421616 637.63115402 56.2660318 637.69161407 55.17578125 637.75390625 C54.08218796 637.81907944 52.98859467 637.88425262 51.86186218 637.95140076 C49.53588334 638.0888249 47.20977174 638.22401699 44.88354492 638.35717773 C41.37181533 638.55908958 37.86072938 638.77020452 34.34960938 638.98242188 C32.08336622 639.11514612 29.81709097 639.24732366 27.55078125 639.37890625 C26.00297722 639.47263268 26.00297722 639.47263268 24.42390442 639.56825256 C16.24274121 640.02704547 8.2335056 640 0 640 C0 581.59 0 523.18 0 463 C21.89016036 452.89684906 43.73404557 442.87151717 65.7734375 433.12890625 C75.73855323 428.70745211 85.61882927 424.1052233 95.5 419.5 C109.05284449 413.18355462 122.65278182 406.99765372 136.33349609 400.96337891 C148.94011746 395.39974954 161.45891184 389.66053114 173.95773315 383.85925293 C186.57104149 378.007901 199.2415022 372.30124253 211.96044922 366.68359375 C221.68781261 362.38560343 231.36890731 358.01066768 241 353.5 C253.26292162 347.75700426 265.61943577 342.24144389 278.00341797 336.765625 C287.64882055 332.49949138 297.26851058 328.18597467 306.83349609 323.74145508 C307.63352051 323.3730249 308.43354492 323.00459473 309.2578125 322.625 C309.9398877 322.30789063 310.62196289 321.99078125 311.32470703 321.6640625 C313 321 313 321 315 321 C315 320.34 315 319.68 315 319 C314.32590088 318.90211182 313.65180176 318.80422363 312.95727539 318.70336914 C309.30198395 317.83398132 306.06408711 316.34178918 302.68359375 314.74609375 C301.9675296 314.41378754 301.25146545 314.08148132 300.51370239 313.73910522 C298.96457262 313.01983158 297.41651286 312.29824985 295.86941528 311.57461548 C291.69712424 309.62373472 287.51653519 307.6908138 283.3359375 305.7578125 C282.04614738 305.16094383 282.04614738 305.16094383 280.7303009 304.55201721 C272.04944461 300.54384572 263.31054379 296.67121444 254.5625 292.8125 C243.03373543 287.72206426 231.57442457 282.5099779 220.17352295 277.13964844 C210.07356564 272.38625236 199.90027454 267.81788301 189.6875 263.3125 C174.54326705 256.63082055 159.50706967 249.73176143 144.5065918 242.73364258 C133.85989091 237.76891195 123.17520374 232.89775202 112.45306396 228.09811401 C108.50004194 226.32854382 104.54891211 224.5547595 100.59765625 222.78125 C99.82602646 222.43495544 99.05439667 222.08866089 98.25938416 221.73187256 C81.14492616 214.0496694 64.05768451 206.31261416 47.02563477 198.44921875 C31.38020741 191.23210757 15.6867374 184.13033518 0 177 C0 118.59 0 60.18 0 0 Z " fill="#7C0AC7" transform="translate(72,40)"/>
<path d="M0 0 C12.38514879 -0.11679017 24.74682361 -0.01940964 37.125 0.4375 C38.75659058 0.49635376 38.75659058 0.49635376 40.42114258 0.55639648 C42.5514158 0.64076534 44.68128153 0.73619442 46.81054688 0.84301758 C48.97219065 0.94941202 51.13528093 1.02915501 53.29882812 1.0847168 C61.31223316 1.42887619 67.14108825 3.32482256 74.25 6.9375 C76.53427377 8.04358544 78.82090157 9.14481747 81.109375 10.2421875 C81.72385498 10.53909988 82.33833496 10.83601227 82.97143555 11.141922 C90.52394748 14.77306143 98.2137706 18.08977262 105.89782715 21.43069458 C120.98973546 27.99486406 136.0179666 34.68906418 151 41.5 C164.8325222 47.78695536 178.70241541 53.9775581 192.625 60.0625 C206.2230458 66.00599521 219.78600167 72.02034347 233.3125 78.125 C245.75670994 83.74054638 258.20889273 89.3362522 270.6875 94.875 C271.76605255 95.35379105 271.76605255 95.35379105 272.86639404 95.84225464 C276.61313786 97.50529842 280.36020425 99.16761398 284.10742188 100.82958984 C293.3858078 104.94507936 302.66173197 109.06611429 311.9375 113.1875 C312.90690521 113.61818787 313.87631042 114.04887573 314.87509155 114.49261475 C327.20518943 119.97125344 339.52646201 125.46861046 351.83398438 130.99780273 C363.82511052 136.38006755 375.8394345 141.70997192 387.85198975 147.04418945 C401.28519214 153.00974829 414.71037068 158.99279328 428.125 165 C442.37660133 171.38146848 456.63899474 177.73799254 470.91137695 184.07287598 C478.8790482 187.60966517 486.84590845 191.14827959 494.8125 194.6875 C496.2575441 195.32937759 496.2575441 195.32937759 497.73178101 195.98422241 C508.00537115 200.54817562 518.27614211 205.1182054 528.53515625 209.71484375 C529.37385757 210.09056015 530.2125589 210.46627655 531.07667542 210.8533783 C534.96973882 212.59777168 538.86207531 214.34375749 542.75317383 216.0925293 C554.79561473 221.49376129 566.89330826 226.73622098 579 232 C579 289.42 579 346.84 579 406 C552 418 552 418 540.85546875 422.94921875 C522.25737699 431.20894186 503.6654334 439.48183455 485.09335327 447.79989624 C472.99212872 453.21953675 460.88010336 458.61436422 448.76098633 463.99386597 C438.09700712 468.72787407 427.44323398 473.48413287 416.79595947 478.25558472 C416.01766785 478.60436676 415.23937622 478.9531488 414.4375 479.3125 C413.65759705 479.66200714 412.87769409 480.01151428 412.07415771 480.37161255 C399.27720214 486.10457894 386.45575865 491.78064845 373.625 497.4375 C357.70494186 504.45656946 341.82298327 511.55633049 325.96264648 518.70922852 C313.35661926 524.39422609 300.7295516 530.0297285 288.08642578 535.63183594 C282.93084037 537.91722596 277.7780587 540.20891992 272.625 542.5 C265.13165054 545.83106724 257.63780871 549.16102027 250.14312744 552.48908997 C245.30358973 554.63819554 240.46424944 556.7877454 235.625 558.9375 C234.6414856 559.37440155 233.65797119 559.8113031 232.64465332 560.26144409 C221.21195537 565.34088214 209.78516717 570.43264524 198.375 575.5625 C186.66946821 580.82483099 174.93046524 586.00939982 163.1875 591.1875 C147.31036709 598.18886183 131.46939921 605.26634608 115.65258789 612.40283203 C102.43667481 618.36417893 89.19425945 624.26453533 75.93969727 630.1394043 C75.21527939 630.46063263 74.49086151 630.78186096 73.74449158 631.11282349 C72.39465415 631.71125739 71.04461902 632.30924561 69.6943512 632.90670776 C67.44397485 633.9041537 65.20200265 634.89899867 63 636 C61.4475727 636.17511667 59.88884716 636.2959022 58.3293457 636.38891602 C56.87060783 636.4788961 56.87060783 636.4788961 55.38240051 636.57069397 C54.32421616 636.63115402 53.2660318 636.69161407 52.17578125 636.75390625 C51.08218796 636.81907944 49.98859467 636.88425262 48.86186218 636.95140076 C46.53588334 637.0888249 44.20977174 637.22401699 41.88354492 637.35717773 C38.37181533 637.55908958 34.86072938 637.77020452 31.34960938 637.98242188 C19.88866807 638.65929858 8.48308787 639.24629564 -3 639 C-2.19482422 635.14941406 -2.19482422 635.14941406 -0.44140625 633.8046875 C0.17863281 633.49789062 0.79867187 633.19109375 1.4375 632.875 C3.76688905 631.69814791 5.1183829 630.8816171 7 629 C8.0725 628.855625 9.145 628.71125 10.25 628.5625 C16.31676116 627.65248583 19.81244396 625.33711161 24 621 C24.66 621 25.32 621 26 621 C26.825 620.34 27.65 619.68 28.5 619 C31 617 31 617 33 617 C33 616.34 33 615.68 33 615 C33.95712891 614.70996094 33.95712891 614.70996094 34.93359375 614.4140625 C36.17302734 614.02347656 36.17302734 614.02347656 37.4375 613.625 C38.26121094 613.36976563 39.08492187 613.11453125 39.93359375 612.8515625 C42.17798016 612.19117773 42.17798016 612.19117773 43 610 C46.98449687 608.04534116 49.52274716 607 54 607 C54.33 606.34 54.66 605.68 55 605 C58.53850474 603.18293 60.25281242 602.94610349 64 604 C65.67542976 603.71395102 67.34385343 603.38218767 69 603 C69.99 603 70.98 603 72 603 C72 602.34 72 601.68 72 601 C72.66 601 73.32 601 74 601 C74.33 600.34 74.66 599.68 75 599 C75.99 599.33 76.98 599.66 78 600 C78 599.34 78 598.68 78 598 C78.66 597.67 79.32 597.34 80 597 C80.309375 596.175 80.61875 595.35 80.9375 594.5 C81.288125 593.675 81.63875 592.85 82 592 C82.99 591.67 83.98 591.34 85 591 C85.33 590.67 85.66 590.34 86 590 C87.11375 589.690625 88.2275 589.38125 89.375 589.0625 C93.05281953 588.18020781 93.05281953 588.18020781 96 586 C97.32 586.66 98.64 587.32 100 588 C100.45375 587.505 100.9075 587.01 101.375 586.5 C103 585 103 585 105 585 C104.505 583.515 104.505 583.515 104 582 C105.258125 581.79375 106.51625 581.5875 107.8125 581.375 C114.58996079 579.89511141 120.21178941 576.21613782 126.13671875 572.75 C128 572 128 572 131 573 C131 572.34 131 571.68 131 571 C134.75 569 134.75 569 137 569 C140.26897748 567.51410115 143.09358711 565.9317594 146 563.8125 C149.34869354 561.78933098 151.16225919 561.63450088 155 562 C155 561.34 155 560.68 155 560 C158.07617188 559.70703125 158.07617188 559.70703125 161.15234375 559.4140625 C161.76207031 559.27742187 162.37179688 559.14078125 163 559 C163.33 558.34 163.66 557.68 164 557 C168.57083285 553.08214327 173.14188269 551.89145263 179 551 C179.99 550.67 180.98 550.34 182 550 C182 549.34 182 548.68 182 548 C182.52207031 547.76925781 183.04414063 547.53851562 183.58203125 547.30078125 C184.31808594 546.97464844 185.05414063 546.64851562 185.8125 546.3125 C187.03453125 545.77109375 187.03453125 545.77109375 188.28125 545.21875 C190.16137924 544.37593345 192.03608443 543.52095021 193.90625 542.65625 C194.8653125 542.2128125 195.824375 541.769375 196.8125 541.3125 C197.70582031 540.89613281 198.59914063 540.47976563 199.51953125 540.05078125 C202 539 202 539 204.19921875 538.48046875 C206.23582293 538.09812335 206.23582293 538.09812335 208 536 C209.54089926 535.30420088 211.10774211 534.66488854 212.6875 534.0625 C215.75014453 532.87539427 218.79916496 531.68254846 221.8125 530.375 C223.71662017 529.55361483 225.63066154 528.75388818 227.5625 528 C230.132114 526.9888638 230.132114 526.9888638 233 525.4375 C235.77315319 524.10869743 238.00820592 523.55111996 241 523 C243.25747886 522.07044988 244.7219294 521.29515874 246.3984375 519.515625 C248.51593274 517.51175145 250.88830464 516.83722084 253.60546875 515.89453125 C257.36879376 514.48865617 260.9596274 512.72029099 264.58203125 510.98828125 C267 510 267 510 270 510 C270.33 509.34 270.66 508.68 271 508 C273.90259811 506.6250851 275.76138705 506 279 506 C279.33 505.34 279.66 504.68 280 504 C282.4886646 503.14814527 285.00648108 502.52895891 287.5546875 501.87890625 C290.16407986 500.94102561 291.10197322 499.93917641 293 498 C294.98046875 497.3046875 294.98046875 497.3046875 297.1875 496.875 C298.38246094 496.63716797 298.38246094 496.63716797 299.6015625 496.39453125 C301.75587623 496.04015717 303.89109818 495.7813567 306.0625 495.5625 C313.72449891 494.46792873 320.03301877 491.02094131 326.8515625 487.54296875 C330.8571723 485.57992176 334.95506962 483.91288068 339.0859375 482.234375 C343.49726313 480.36577058 347.75104297 478.20908164 352 476 C351.67 475.34 351.34 474.68 351 474 C352.32 473.01 353.64 472.02 355 471 C355.66 471.33 356.32 471.66 357 472 C357 471.01 357 470.02 357 469 C357.8353125 469.37125 357.8353125 469.37125 358.6875 469.75 C361.19781395 470.28286086 361.19781395 470.28286086 363.5 468.1875 C364.325 467.465625 365.15 466.74375 366 466 C369.14762994 464.09234549 370.09366904 464 374 464 C374 463.34 374 462.68 374 462 C383.07142857 457.35880399 383.07142857 457.35880399 387.6875 456.5 C390.18192915 456.17920507 390.18192915 456.17920507 392 454 C393.32 454 394.64 454 396 454 C397.68822345 452.69406847 399.35255251 451.3570086 401 450 C404.04296875 448.515625 404.04296875 448.515625 407.1875 447.25 C408.23292969 446.82203125 409.27835937 446.3940625 410.35546875 445.953125 C413 445 413 445 415 445 C415.33 444.34 415.66 443.68 416 443 C418.04243528 442.36614078 420.09132519 441.98173496 422.1875 441.5625 C422.785625 441.376875 423.38375 441.19125 424 441 C424.33 440.34 424.66 439.68 425 439 C427.75007762 437.94227784 430.5461774 437.1313697 433.375 436.3125 C442.89810004 434.00281026 442.89810004 434.00281026 450 428 C452.53088459 427.07656913 455.07162058 426.48251125 457.6875 425.84375 C460.3369457 425.13539077 460.3369457 425.13539077 462 422 C464.32817964 421.63239269 466.6618385 421.29758419 469 421 C469.33 420.34 469.66 419.68 470 419 C473 418 473 418 476 419 C476 418.34 476 417.68 476 417 C478 416 480 415 482 414 C482.721875 413.608125 483.44375 413.21625 484.1875 412.8125 C486 412 486 412 489 412 C489 411.34 489 410.68 489 410 C489.67804688 409.75765625 490.35609375 409.5153125 491.0546875 409.265625 C501.6955903 405.5404456 501.6955903 405.5404456 512 401 C511.62875 400.2575 511.2575 399.515 510.875 398.75 C510.58625 397.8425 510.2975 396.935 510 396 C510.46212891 395.13568359 510.46212891 395.13568359 510.93359375 394.25390625 C514.0295613 387.71041441 512.24670848 378.01273523 511 371 C511 369 511 367 511 365 C510.67 364.01 510.34 363.02 510 362 C510.66 361.34 511.32 360.68 512 360 C512.27765482 357.70476525 512.27765482 357.70476525 512.1953125 355.0625 C512.18564453 353.59683594 512.18564453 353.59683594 512.17578125 352.1015625 C512.15902344 351.07804687 512.14226563 350.05453125 512.125 349 C512.11146484 347.46472656 512.11146484 347.46472656 512.09765625 345.8984375 C512.07334093 343.26543616 512.03772798 340.6328327 512 338 C512 337.34 512 336.68 512 336 C511.67 335.01 511.34 334.02 511 333 C511.99 332.01 512.98 331.02 514 330 C513.01 329.67 512.02 329.34 511 329 C511.20625 328.34 511.4125 327.68 511.625 327 C512.27996489 321.76028084 510.90298181 317.35447271 508 313 C509.32 311.35 510.64 309.7 512 308 C511.34 308 510.68 308 510 308 C510 307.34 510 306.68 510 306 C510.66 305.67 511.32 305.34 512 305 C511.67 304.01 511.34 303.02 511 302 C510.3125 299.9375 510.3125 299.9375 510 298 C510.66 297.34 511.32 296.68 512 296 C511.855625 295.29875 511.71125 294.5975 511.5625 293.875 C510.51610135 288.52674021 511.94435953 283.27820234 513 278 C513 277.01 513 276.02 513 275 C513 272 513 269 513 266 C512.15098073 263.22653704 511.29785911 260.59571822 510 258 C510.66 257.34 511.32 256.68 512 256 C512 255.01 512 254.02 512 253 C511.34 252.34 510.68 251.68 510 251 C510.66 250.34 511.32 249.68 512 249 C512 248.01 512 247.02 512 246 C511.34 245.34 510.68 244.68 510 244 C510.165 243.030625 510.33 242.06125 510.5 241.0625 C511.3837051 237.83724247 511.3837051 237.83724247 509 235 C511.90600261 233.74335022 513.79604584 233 517 233 C517.33 232.34 517.66 231.68 518 231 C517.45472656 230.82911865 516.90945313 230.6582373 516.34765625 230.48217773 C510.72541877 228.67116855 505.37194029 226.51064987 500 224.0625 C499.2575 223.72798828 498.515 223.39347656 497.75 223.04882812 C496.24863508 222.37243195 494.74798367 221.69444981 493.24804688 221.01489258 C491.01310544 220.00591652 488.77313954 219.00905618 486.53125 218.015625 C483.46184569 216.65414204 480.40009592 215.27726715 477.34375 213.88671875 C468.53765911 209.88501604 459.71933364 205.96460742 450.73242188 202.38354492 C447.50818994 201.08742646 444.37357377 199.71620772 441.27734375 198.13671875 C435.89530886 195.39600086 430.34859264 193.03445237 424.8125 190.625 C417.08728545 187.24734993 409.3941823 183.82772732 401.7578125 180.25390625 C398.88625361 178.94828245 395.98509608 177.74908927 393.0625 176.5625 C388.6541022 174.75748673 384.42690676 172.73460054 380.1875 170.5625 C374.99617301 167.90549929 369.73194001 165.64253151 364.29174805 163.54223633 C357.19824392 160.75999745 350.32072838 157.51958781 343.40893555 154.31835938 C336.2925344 151.03018715 329.13663262 147.85259007 321.9375 144.75 C315.51857934 141.98343817 309.13065653 139.17761488 302.8125 136.1875 C297.58576037 133.71562756 292.31465958 131.43628681 286.96484375 129.24609375 C282.64536918 127.43066241 278.40664236 125.45165037 274.16015625 123.47265625 C270.38790191 121.71475775 266.60037357 119.99224095 262.80908203 118.27587891 C261.1082537 117.5033664 259.40897278 116.72741716 257.71264648 115.94506836 C251.95237013 113.29687388 246.15036368 110.75662661 240.32421875 108.2578125 C239.15641876 107.75644524 239.15641876 107.75644524 237.96502686 107.24494934 C234.7310888 105.85724038 231.49684618 104.47029282 228.26000977 103.08935547 C219.11973932 99.18701733 210.14596784 95.14090583 201.2902832 90.62548828 C195.88350524 87.95439474 190.32482527 85.66894724 184.75 83.375 C177.77347329 80.49553732 170.89891779 77.56658545 164.19702148 74.08789062 C161.94042708 72.97050151 159.66117732 72.03081885 157.3125 71.125 C152.67438235 69.31812595 148.19662779 67.24516762 143.69750977 65.1184082 C133.74295196 60.43864809 123.65670418 56.04620507 113.59912109 51.59375 C107.75163229 49.00438581 101.90687227 46.40888922 96.0625 43.8125 C94.93602051 43.31234375 93.80954102 42.8121875 92.64892578 42.296875 C85.16121963 38.96949206 77.69041762 35.60624483 70.22631836 32.22631836 C64.22833533 29.52264715 58.18339914 26.9399014 52.125 24.375 C44.92586029 21.32568916 37.92904102 18.04018417 30.97265625 14.4765625 C27.68323316 12.84265721 24.35750593 11.4857388 20.9296875 10.17578125 C13.86205837 7.33930609 6.94700065 4.117826 0 1 C0 0.67 0 0.34 0 0 Z " fill="#700AB3" transform="translate(75,41)"/>
<path d="M0 0 C1.37861302 0.00747345 2.75723676 0.01316116 4.13586426 0.01715088 C7.73968565 0.03232081 11.34284772 0.07152532 14.94641113 0.1159668 C18.63345423 0.15710819 22.32060533 0.17520186 26.0078125 0.1953125 C33.22425679 0.23803029 40.44016052 0.30617366 47.65625 0.390625 C45.17907963 2.33345806 42.83234458 3.91024241 39.95874023 5.19311523 C39.24429245 5.5150032 38.52984467 5.83689117 37.79374695 6.16853333 C37.02520889 6.50865952 36.25667084 6.84878571 35.46484375 7.19921875 C34.65630447 7.56178268 33.8477652 7.92434662 33.01472473 8.29789734 C30.37652764 9.4794654 27.73520517 10.65386092 25.09375 11.828125 C23.25795337 12.6485127 21.42234259 13.46931641 19.58691406 14.29052734 C15.0780993 16.30637349 10.56673516 18.31642823 6.05413818 20.3237915 C3.93883473 21.26490152 1.82398814 22.20702357 -0.29052734 23.14990234 C-6.78729184 26.04647258 -13.28826356 28.93343197 -19.79150391 31.81542969 C-26.02376806 34.57904263 -32.25305736 37.34934979 -38.48272705 40.11880493 C-42.33346381 41.83066955 -46.18429365 43.54232473 -50.03515625 45.25390625 C-50.80623718 45.59663071 -51.57731812 45.93935516 -52.37176514 46.29246521 C-56.94187542 48.32360212 -61.51240383 50.35379449 -66.08331299 52.38313293 C-69.79527095 54.03113577 -73.50705652 55.67952658 -77.21875 57.328125 C-77.95953796 57.65714813 -78.70032593 57.98617126 -79.46356201 58.32516479 C-91.74283405 63.78012386 -104.00753465 69.26721588 -116.26904297 74.76196289 C-129.06617905 80.49502725 -141.88780393 86.17119082 -154.71875 91.828125 C-170.63880814 98.84719446 -186.52076673 105.94695549 -202.38110352 113.09985352 C-214.98713074 118.78485109 -227.6141984 124.4203535 -240.25732422 130.02246094 C-245.41290963 132.30785096 -250.5656913 134.59954492 -255.71875 136.890625 C-263.21209946 140.22169224 -270.70594129 143.55164527 -278.20062256 146.87971497 C-283.04016027 149.02882054 -287.87950056 151.1783704 -292.71875 153.328125 C-293.7022644 153.76502655 -294.68577881 154.2019281 -295.69909668 154.65206909 C-307.13179463 159.73150714 -318.55858283 164.82327024 -329.96875 169.953125 C-341.67428179 175.21545599 -353.41328476 180.40002482 -365.15625 185.578125 C-381.03338291 192.57948683 -396.87435079 199.65697108 -412.69116211 206.79345703 C-425.90707519 212.75480393 -439.14949055 218.65516033 -452.40405273 224.5300293 C-453.49067955 225.0118718 -453.49067955 225.0118718 -454.59925842 225.50344849 C-455.94909585 226.10188239 -457.29913098 226.69987061 -458.6493988 227.29733276 C-460.89977515 228.2947787 -463.14174735 229.28962367 -465.34375 230.390625 C-467.7953011 230.61860221 -470.22650057 230.79284869 -472.68359375 230.92578125 C-473.4298703 230.96884903 -474.17614685 231.01191681 -474.94503784 231.05628967 C-477.39015594 231.19448212 -479.83560924 231.32453379 -482.28125 231.453125 C-483.10877777 231.49798035 -483.93630554 231.54283569 -484.78890991 231.58905029 C-499.65396328 232.38567849 -514.45670545 232.64043987 -529.34375 232.390625 C-527.36375 231.400625 -527.36375 231.400625 -525.34375 230.390625 C-525.34375 229.730625 -525.34375 229.070625 -525.34375 228.390625 C-524.34021484 228.00583984 -524.34021484 228.00583984 -523.31640625 227.61328125 C-516.04727158 224.71538461 -509.22940427 221.32061436 -502.39672852 217.51391602 C-498.11260255 215.16771486 -494.08765868 213.66850446 -489.34375 212.390625 C-488.35375 211.730625 -487.36375 211.070625 -486.34375 210.390625 C-483.65625 210.265625 -483.65625 210.265625 -481.34375 210.390625 C-481.34375 209.730625 -481.34375 209.070625 -481.34375 208.390625 C-478.15062693 207.15913089 -474.95678039 205.92958268 -471.76171875 204.703125 C-469.76303729 203.93563132 -467.76521402 203.16588265 -465.76953125 202.390625 C-460.56760817 200.390625 -460.56760817 200.390625 -458.34375 200.390625 C-458.34375 199.730625 -458.34375 199.070625 -458.34375 198.390625 C-457.75207031 198.20886719 -457.16039062 198.02710938 -456.55078125 197.83984375 C-452.15885002 196.44273675 -448.12632791 195.10935287 -444.34375 192.390625 C-444.01375 191.730625 -443.68375 191.070625 -443.34375 190.390625 C-441.41015625 189.71484375 -441.41015625 189.71484375 -438.90625 189.078125 C-435.17241385 188.02947314 -431.89678245 186.76437067 -428.46875 184.953125 C-424.86404786 183.06065638 -421.35471893 181.66749029 -417.46875 180.453125 C-412.0027967 178.72962621 -407.12071023 176.34995926 -402.04296875 173.71484375 C-398.81462614 172.13104036 -395.84031307 171.1919207 -392.34375 170.390625 C-391.539375 170.184375 -390.735 169.978125 -389.90625 169.765625 C-389.390625 169.641875 -388.875 169.518125 -388.34375 169.390625 C-388.34375 168.730625 -388.34375 168.070625 -388.34375 167.390625 C-385.80351352 166.26230143 -383.26166162 165.13789072 -380.71875 164.015625 C-380.00589844 163.69851563 -379.29304687 163.38140625 -378.55859375 163.0546875 C-374.53666652 161.28356358 -370.53413525 159.73228343 -366.34375 158.390625 C-364.70546844 157.70254675 -363.06810448 157.01190719 -361.44140625 156.296875 C-359.85330962 155.61076994 -358.25502571 154.94818262 -356.65234375 154.296875 C-350.34168069 151.72982562 -344.25069847 148.89765522 -338.17578125 145.81640625 C-335.58099432 144.51006525 -332.979731 143.23654582 -330.34375 142.015625 C-329.663125 141.69851563 -328.9825 141.38140625 -328.28125 141.0546875 C-326.34375 140.390625 -326.34375 140.390625 -322.34375 140.390625 C-322.34375 139.730625 -322.34375 139.070625 -322.34375 138.390625 C-321.25320313 137.95363281 -321.25320313 137.95363281 -320.140625 137.5078125 C-313.68076455 134.87417709 -307.45067668 131.9822607 -301.2421875 128.8046875 C-297.73575203 127.09400065 -294.1629547 125.68463472 -290.5 124.34765625 C-288.30617491 123.49066733 -288.30617491 123.49066733 -286.625 121.96484375 C-282.52934151 119.13855887 -277.62100171 118.0890792 -272.8984375 116.640625 C-268.81079085 115.34552903 -265.67393079 114.17600663 -262.34375 111.390625 C-260.3984375 110.50390625 -260.3984375 110.50390625 -258.21875 109.703125 C-253.04397732 107.70924707 -247.97495122 105.51226801 -242.90625 103.265625 C-242.1126709 102.91669189 -241.3190918 102.56775879 -240.50146484 102.20825195 C-239.74945801 101.87398193 -238.99745117 101.53971191 -238.22265625 101.1953125 C-237.21054077 100.74647705 -237.21054077 100.74647705 -236.17797852 100.28857422 C-234.08723583 99.3152083 -234.08723583 99.3152083 -231.34375 97.390625 C-230.18875 97.08125 -229.03375 96.771875 -227.84375 96.453125 C-224.45498581 95.75337878 -224.45498581 95.75337878 -223.09765625 94.0078125 C-220.42661663 91.54498309 -217.15302205 90.63742349 -213.78125 89.453125 C-212.3278639 88.92519742 -210.874738 88.39655297 -209.421875 87.8671875 C-208.71869141 87.61356445 -208.01550781 87.35994141 -207.29101562 87.09863281 C-198.00999416 83.72413905 -188.94370394 79.77112976 -180.15625 75.265625 C-176.9157666 73.6155629 -173.62415155 72.33570692 -170.20703125 71.1015625 C-167.48408659 70.06261926 -164.9384064 68.71442928 -162.34375 67.390625 C-157.75472382 65.26032271 -153.12065723 63.28856141 -148.40625 61.453125 C-144.07404562 59.74304432 -139.9550357 57.74470522 -135.80859375 55.62890625 C-125.38160489 50.390625 -125.38160489 50.390625 -122.34375 50.390625 C-122.34375 49.730625 -122.34375 49.070625 -122.34375 48.390625 C-117.49135297 46.39496276 -112.64922277 44.44653686 -107.65625 42.828125 C-102.91851068 41.28230177 -98.33142726 39.62223225 -94.07421875 36.984375 C-90.94356787 35.1570423 -87.75145129 33.78536691 -84.40625 32.390625 C-80.8955781 30.9237066 -77.46820497 29.45516827 -74.08984375 27.703125 C-71.34375 26.390625 -71.34375 26.390625 -68.34375 26.390625 C-68.34375 25.730625 -68.34375 25.070625 -68.34375 24.390625 C-67.46332031 24.14828125 -66.58289063 23.9059375 -65.67578125 23.65625 C-63.93361328 23.15351563 -63.93361328 23.15351563 -62.15625 22.640625 C-61.00769531 22.31578125 -59.85914063 21.9909375 -58.67578125 21.65625 C-55.22483848 20.34545814 -53.15866097 18.73100925 -50.34375 16.390625 C-47.8828125 15.296875 -47.8828125 15.296875 -45.34375 14.390625 C-43.46357437 13.56903565 -41.58861687 12.73541334 -39.71875 11.890625 C-38.77773438 11.4678125 -37.83671875 11.045 -36.8671875 10.609375 C-34.19124517 9.38835571 -34.19124517 9.38835571 -31.34375 7.390625 C-29.24475281 6.63713883 -27.12460487 6.00615997 -24.98828125 5.3671875 C-22.14038179 4.41672504 -22.14038179 4.41672504 -19.07495117 2.35400391 C-13.01272612 -0.68240383 -6.63131778 -0.10411906 0 0 Z " fill="#3F0A61" transform="translate(603.34375,446.609375)"/>
<path d="M0 0 C12.38514879 -0.11679017 24.74682361 -0.01940964 37.125 0.4375 C38.75659058 0.49635376 38.75659058 0.49635376 40.42114258 0.55639648 C42.5514158 0.64076534 44.68128153 0.73619442 46.81054688 0.84301758 C48.97219065 0.94941202 51.13528093 1.02915501 53.29882812 1.0847168 C61.31223316 1.42887619 67.14108825 3.32482256 74.25 6.9375 C76.53427377 8.04358544 78.82090157 9.14481747 81.109375 10.2421875 C81.72385498 10.53909988 82.33833496 10.83601227 82.97143555 11.141922 C90.52394748 14.77306143 98.2137706 18.08977262 105.89782715 21.43069458 C120.98973546 27.99486406 136.0179666 34.68906418 151 41.5 C164.8325222 47.78695536 178.70241541 53.9775581 192.625 60.0625 C206.2230458 66.00599521 219.78600167 72.02034347 233.3125 78.125 C245.75670994 83.74054638 258.20889273 89.3362522 270.6875 94.875 C271.76605255 95.35379105 271.76605255 95.35379105 272.86639404 95.84225464 C276.61313786 97.50529842 280.36020425 99.16761398 284.10742188 100.82958984 C293.3858078 104.94507936 302.66173197 109.06611429 311.9375 113.1875 C312.90690521 113.61818787 313.87631042 114.04887573 314.87509155 114.49261475 C327.20518943 119.97125344 339.52646201 125.46861046 351.83398438 130.99780273 C363.82511052 136.38006755 375.8394345 141.70997192 387.85198975 147.04418945 C401.28519214 153.00974829 414.71037068 158.99279328 428.125 165 C442.37660133 171.38146848 456.63899474 177.73799254 470.91137695 184.07287598 C505.97558973 199.63761567 541.03051348 215.22327793 576 231 C574 233 574 233 571.81228638 233.19581604 C570.90501801 233.17059372 569.99774963 233.1453714 569.06298828 233.11938477 C568.03497101 233.09598526 567.00695374 233.07258575 565.94778442 233.04847717 C564.83321869 233.01314377 563.71865295 232.97781036 562.5703125 232.94140625 C561.42843475 232.91400864 560.28655701 232.88661102 559.1100769 232.85838318 C555.44806639 232.7693674 551.78660365 232.66683628 548.125 232.5625 C544.47053263 232.46334778 540.8160555 232.36714574 537.16134644 232.27732849 C534.88411506 232.22087641 532.60701564 232.15876356 530.33010864 232.09046936 C528.77862625 232.05064186 528.77862625 232.05064186 527.19580078 232.01000977 C526.28694122 231.98399185 525.37808167 231.95797394 524.44168091 231.9311676 C522.12861736 231.9963742 520.20948162 232.33973146 518 233 C518 232.34 518 231.68 518 231 C517.45472656 230.82911865 516.90945313 230.6582373 516.34765625 230.48217773 C510.72541877 228.67116855 505.37194029 226.51064987 500 224.0625 C499.2575 223.72798828 498.515 223.39347656 497.75 223.04882812 C496.24863508 222.37243195 494.74798367 221.69444981 493.24804688 221.01489258 C491.01310544 220.00591652 488.77313954 219.00905618 486.53125 218.015625 C483.46184569 216.65414204 480.40009592 215.27726715 477.34375 213.88671875 C468.53765911 209.88501604 459.71933364 205.96460742 450.73242188 202.38354492 C447.50818994 201.08742646 444.37357377 199.71620772 441.27734375 198.13671875 C435.89530886 195.39600086 430.34859264 193.03445237 424.8125 190.625 C417.08728545 187.24734993 409.3941823 183.82772732 401.7578125 180.25390625 C398.88625361 178.94828245 395.98509608 177.74908927 393.0625 176.5625 C388.6541022 174.75748673 384.42690676 172.73460054 380.1875 170.5625 C374.99617301 167.90549929 369.73194001 165.64253151 364.29174805 163.54223633 C357.19824392 160.75999745 350.32072838 157.51958781 343.40893555 154.31835938 C336.2925344 151.03018715 329.13663262 147.85259007 321.9375 144.75 C315.51857934 141.98343817 309.13065653 139.17761488 302.8125 136.1875 C297.58576037 133.71562756 292.31465958 131.43628681 286.96484375 129.24609375 C282.64536918 127.43066241 278.40664236 125.45165037 274.16015625 123.47265625 C270.38790191 121.71475775 266.60037357 119.99224095 262.80908203 118.27587891 C261.1082537 117.5033664 259.40897278 116.72741716 257.71264648 115.94506836 C251.95237013 113.29687388 246.15036368 110.75662661 240.32421875 108.2578125 C239.15641876 107.75644524 239.15641876 107.75644524 237.96502686 107.24494934 C234.7310888 105.85724038 231.49684618 104.47029282 228.26000977 103.08935547 C219.11973932 99.18701733 210.14596784 95.14090583 201.2902832 90.62548828 C195.88350524 87.95439474 190.32482527 85.66894724 184.75 83.375 C177.77347329 80.49553732 170.89891779 77.56658545 164.19702148 74.08789062 C161.94042708 72.97050151 159.66117732 72.03081885 157.3125 71.125 C152.67438235 69.31812595 148.19662779 67.24516762 143.69750977 65.1184082 C133.74295196 60.43864809 123.65670418 56.04620507 113.59912109 51.59375 C107.75163229 49.00438581 101.90687227 46.40888922 96.0625 43.8125 C94.93602051 43.31234375 93.80954102 42.8121875 92.64892578 42.296875 C85.16121963 38.96949206 77.69041762 35.60624483 70.22631836 32.22631836 C64.22833533 29.52264715 58.18339914 26.9399014 52.125 24.375 C44.92586029 21.32568916 37.92904102 18.04018417 30.97265625 14.4765625 C27.68323316 12.84265721 24.35750593 11.4857388 20.9296875 10.17578125 C13.86205837 7.33930609 6.94700065 4.117826 0 1 C0 0.67 0 0.34 0 0 Z " fill="#620A9D" transform="translate(75,41)"/>
<path d="M0 0 C2.64 0 5.28 0 8 0 C5.77113933 2.22886067 3.93882837 3.04559496 1.0625 4.3125 C0.0828125 4.74949219 -0.896875 5.18648438 -1.90625 5.63671875 C-3.94746072 6.53619166 -5.98911832 7.43465122 -8.03125 8.33203125 C-8.9903125 8.75871094 -9.949375 9.18539063 -10.9375 9.625 C-11.81277344 10.00914062 -12.68804687 10.39328125 -13.58984375 10.7890625 C-16.02093864 11.90714351 -16.02093864 11.90714351 -17.95703125 13.55859375 C-20.50334558 15.35513292 -22.70799391 15.80309199 -25.75 16.4375 C-31.04546499 17.65306461 -35.2155079 19.4772678 -40 22 C-40.99 22 -41.98 22 -43 22 C-43 22.66 -43 23.32 -43 24 C-43.59538574 24.26216309 -44.19077148 24.52432617 -44.80419922 24.79443359 C-47.49660751 25.98317313 -50.18581363 27.17899078 -52.875 28.375 C-54.28072266 28.99375 -54.28072266 28.99375 -55.71484375 29.625 C-56.61074219 30.02460938 -57.50664062 30.42421875 -58.4296875 30.8359375 C-59.25710449 31.20251465 -60.08452148 31.5690918 -60.93701172 31.94677734 C-63.14687595 32.94137141 -63.14687595 32.94137141 -65 35 C-66.84765625 35.7109375 -66.84765625 35.7109375 -69.0625 36.375 C-75.70280938 38.49650459 -81.85852596 41.40359579 -88.0625 44.5625 C-91.63774649 46.37491309 -95.18842608 47.85764909 -98.9609375 49.1953125 C-101.27505949 50.10854838 -103.42195254 51.21965589 -105.625 52.375 C-110.81038486 55.03560579 -116.17201633 56.90778704 -121.671875 58.8125 C-125.17108103 60.061043 -128.53387475 61.46979147 -131.90234375 63.03125 C-133.40338501 63.72446831 -134.91832461 64.38790032 -136.44140625 65.03125 C-137.64603516 65.54171875 -137.64603516 65.54171875 -138.875 66.0625 C-139.95394531 66.51302734 -139.95394531 66.51302734 -141.0546875 66.97265625 C-143.05146236 67.88039299 -143.05146236 67.88039299 -144.3203125 69.49609375 C-146.84765953 71.75895098 -149.74904523 72.10375509 -153 73 C-155.86461806 74.20604622 -158.64750819 75.56887216 -161.4375 76.9375 C-165.66875605 79.00143395 -169.86432907 81.00039594 -174.28515625 82.62890625 C-177.00479467 83.63268447 -179.46012877 84.6393547 -182 86 C-185.18185028 87.63408978 -188.37144362 88.93719551 -191.73046875 90.15625 C-200.95166307 93.58325163 -200.95166307 93.58325163 -209.6875 98.0625 C-212.86618771 99.92173243 -216.02686444 101.39951862 -219.3984375 102.859375 C-223.6262612 104.71301542 -227.80052861 106.68237203 -231.984375 108.6328125 C-239.41142857 112 -239.41142857 112 -243 112 C-243 112.66 -243 113.32 -243 114 C-243.79921875 114.29132813 -244.5984375 114.58265625 -245.421875 114.8828125 C-252.17999465 117.40520927 -258.60415951 120.22050999 -265.015625 123.51953125 C-269.90134657 125.94320726 -274.95020058 127.94783188 -280 130 C-281.29329646 130.5587426 -282.58526553 131.12058375 -283.875 131.6875 C-287 133 -287 133 -289.77734375 133.88671875 C-294.38748398 135.47931265 -298.68529894 137.64181656 -303.07421875 139.7578125 C-306 141 -306 141 -309 141 C-309 141.66 -309 142.32 -309 143 C-312.38447652 145.53835739 -315.56129268 146.36778726 -319.63671875 147.2734375 C-322.58213684 148.178971 -325.14322922 149.51375297 -327.875 150.9375 C-332.35896219 153.2693851 -336.56597399 154.85040463 -341.4296875 156.1484375 C-344.5218949 157.17290743 -347.24663251 158.60285579 -350.125 160.125 C-354.9248157 162.63033016 -358.60750754 163.79259644 -364 164 C-364.33 164.99 -364.66 165.98 -365 167 C-369.24422333 170.03158809 -373.74880241 172 -379 172 C-379 172.66 -379 173.32 -379 174 C-398.61702128 182 -398.61702128 182 -402 182 C-402 182.66 -402 183.32 -402 184 C-403.6396875 184.433125 -403.6396875 184.433125 -405.3125 184.875 C-409.04013845 185.81893204 -409.04013845 185.81893204 -412 188 C-413.33611328 188.43699219 -413.33611328 188.43699219 -414.69921875 188.8828125 C-418.61521043 190.20822507 -422.14435488 191.98570664 -425.8125 193.875 C-441.84762093 202 -441.84762093 202 -446 202 C-446 202.66 -446 203.32 -446 204 C-446.66 204.33 -447.32 204.66 -448 205 C-444.37 205.33 -440.74 205.66 -437 206 C-437 206.33 -437 206.66 -437 207 C-441.95 207 -446.9 207 -452 207 C-451 203 -451 203 -449.44140625 201.8046875 C-448.82136719 201.49789062 -448.20132813 201.19109375 -447.5625 200.875 C-445.23311095 199.69814791 -443.8816171 198.8816171 -442 197 C-440.39125 196.7834375 -440.39125 196.7834375 -438.75 196.5625 C-432.68323884 195.65248583 -429.18755604 193.33711161 -425 189 C-424.34 189 -423.68 189 -423 189 C-421.7625 188.01 -421.7625 188.01 -420.5 187 C-418 185 -418 185 -416 185 C-416 184.34 -416 183.68 -416 183 C-415.04287109 182.70996094 -415.04287109 182.70996094 -414.06640625 182.4140625 C-413.24011719 182.15367187 -412.41382813 181.89328125 -411.5625 181.625 C-410.73878906 181.36976563 -409.91507813 181.11453125 -409.06640625 180.8515625 C-406.82201984 180.19117773 -406.82201984 180.19117773 -406 178 C-402.01550313 176.04534116 -399.47725284 175 -395 175 C-394.67 174.34 -394.34 173.68 -394 173 C-390.46149526 171.18293 -388.74718758 170.94610349 -385 172 C-383.32457024 171.71395102 -381.65614657 171.38218767 -380 171 C-379.01 171 -378.02 171 -377 171 C-377 170.34 -377 169.68 -377 169 C-376.34 169 -375.68 169 -375 169 C-374.67 168.34 -374.34 167.68 -374 167 C-373.01 167.33 -372.02 167.66 -371 168 C-371 167.34 -371 166.68 -371 166 C-370.34 165.67 -369.68 165.34 -369 165 C-368.690625 164.175 -368.38125 163.35 -368.0625 162.5 C-367.711875 161.675 -367.36125 160.85 -367 160 C-366.01 159.67 -365.02 159.34 -364 159 C-363.67 158.67 -363.34 158.34 -363 158 C-361.88625 157.690625 -360.7725 157.38125 -359.625 157.0625 C-355.94718047 156.18020781 -355.94718047 156.18020781 -353 154 C-351.02 154.99 -351.02 154.99 -349 156 C-348.54625 155.505 -348.0925 155.01 -347.625 154.5 C-346 153 -346 153 -344 153 C-344.33 152.01 -344.66 151.02 -345 150 C-343.741875 149.79375 -342.48375 149.5875 -341.1875 149.375 C-334.41003921 147.89511141 -328.78821059 144.21613782 -322.86328125 140.75 C-321 140 -321 140 -318 141 C-318 140.34 -318 139.68 -318 139 C-314.25 137 -314.25 137 -312 137 C-308.73102252 135.51410115 -305.90641289 133.9317594 -303 131.8125 C-299.65130646 129.78933098 -297.83774081 129.63450088 -294 130 C-294 129.34 -294 128.68 -294 128 C-290.92382812 127.70703125 -290.92382812 127.70703125 -287.84765625 127.4140625 C-287.23792969 127.27742187 -286.62820313 127.14078125 -286 127 C-285.67 126.34 -285.34 125.68 -285 125 C-280.42916715 121.08214327 -275.85811731 119.89145263 -270 119 C-269.01 118.67 -268.02 118.34 -267 118 C-267 117.34 -267 116.68 -267 116 C-266.21689453 115.65388672 -266.21689453 115.65388672 -265.41796875 115.30078125 C-264.68191406 114.97464844 -263.94585937 114.64851562 -263.1875 114.3125 C-262.3728125 113.9515625 -261.558125 113.590625 -260.71875 113.21875 C-258.83862076 112.37593345 -256.96391557 111.52095021 -255.09375 110.65625 C-254.1346875 110.2128125 -253.175625 109.769375 -252.1875 109.3125 C-251.29417969 108.89613281 -250.40085937 108.47976563 -249.48046875 108.05078125 C-247 107 -247 107 -244.80078125 106.48046875 C-242.76417707 106.09812335 -242.76417707 106.09812335 -241 104 C-239.45910074 103.30420088 -237.89225789 102.66488854 -236.3125 102.0625 C-233.24985547 100.87539427 -230.20083504 99.68254846 -227.1875 98.375 C-225.28337983 97.55361483 -223.36933846 96.75388818 -221.4375 96 C-218.867886 94.9888638 -218.867886 94.9888638 -216 93.4375 C-213.22684681 92.10869743 -210.99179408 91.55111996 -208 91 C-205.74252114 90.07044988 -204.2780706 89.29515874 -202.6015625 87.515625 C-200.48406726 85.51175145 -198.11169536 84.83722084 -195.39453125 83.89453125 C-191.63120624 82.48865617 -188.0403726 80.72029099 -184.41796875 78.98828125 C-182 78 -182 78 -179 78 C-178.67 77.34 -178.34 76.68 -178 76 C-175.09740189 74.6250851 -173.23861295 74 -170 74 C-169.67 73.34 -169.34 72.68 -169 72 C-166.5113354 71.14814527 -163.99351892 70.52895891 -161.4453125 69.87890625 C-158.83592014 68.94102561 -157.89802678 67.93917641 -156 66 C-154.01953125 65.3046875 -154.01953125 65.3046875 -151.8125 64.875 C-150.61753906 64.63716797 -150.61753906 64.63716797 -149.3984375 64.39453125 C-147.24412377 64.04015717 -145.10890182 63.7813567 -142.9375 63.5625 C-135.27550109 62.46792873 -128.96698123 59.02094131 -122.1484375 55.54296875 C-118.1428277 53.57992176 -114.04493038 51.91288068 -109.9140625 50.234375 C-105.50273687 48.36577058 -101.24895703 46.20908164 -97 44 C-97.33 43.34 -97.66 42.68 -98 42 C-97.09507812 41.90912109 -97.09507812 41.90912109 -96.171875 41.81640625 C-95.37265625 41.73261719 -94.5734375 41.64882813 -93.75 41.5625 C-92.96109375 41.48128906 -92.1721875 41.40007813 -91.359375 41.31640625 C-89.15271556 41.02048007 -87.11251991 40.70573121 -85 40 C-84.67 39.34 -84.34 38.68 -84 38 C-76.94604245 34.42437324 -69.43173773 32.1160381 -61.8125 30.08984375 C-58.69699943 28.88258728 -57.32582928 27.33067475 -55 25 C-53.68 25 -52.36 25 -51 25 C-51 24.34 -51 23.68 -51 23 C-50.31808594 22.9071875 -49.63617188 22.814375 -48.93359375 22.71875 C-44.69556289 21.68040422 -41.07197704 19.58420321 -37.25976562 17.52734375 C-33.49956789 15.56300001 -30.21770638 14.46362574 -26 14 C-26 13.34 -26 12.68 -26 12 C-24.69675781 11.51080078 -24.69675781 11.51080078 -23.3671875 11.01171875 C-22.21476562 10.57472656 -21.06234375 10.13773437 -19.875 9.6875 C-18.16957031 9.04361328 -18.16957031 9.04361328 -16.4296875 8.38671875 C-12.98892365 7.05595758 -12.98892365 7.05595758 -9.78125 5.34375 C-6.62235884 3.81754416 -4.46428224 3.75255127 -1 4 C-0.67 2.68 -0.34 1.36 0 0 Z " fill="#6F0AB2" transform="translate(524,473)"/>
<path d="M0 0 C4 1.33333333 8 2.66666667 12 4 C12 4.66 12 5.32 12 6 C13.65 6 15.3 6 17 6 C17.33 5.34 17.66 4.68 18 4 C23.875 8.75 23.875 8.75 25 11 C27.3140622 11.73075648 29.64828869 12.40138258 32 13 C32 13.66 32 14.32 32 15 C41.21625373 18.52649547 41.21625373 18.52649547 50.8125 20 C51.534375 20 52.25625 20 53 20 C53.66 20.66 54.32 21.32 55 22 C55.99 21.34 56.98 20.68 58 20 C58.495 21.485 58.495 21.485 59 23 C60.65 23.33 62.3 23.66 64 24 C64 24.66 64 25.32 64 26 C64.99 26 65.98 26 67 26 C67 26.99 67 27.98 67 29 C68.89179203 29.6814823 68.89179203 29.6814823 71 30 C71.66 29.34 72.32 28.68 73 28 C74.485 28.495 74.485 28.495 76 29 C76.495 28.505 76.495 28.505 77 28 C77.4125 28.639375 77.825 29.27875 78.25 29.9375 C80.23988774 32.28272484 81.12843008 32.32996702 84 33 C84.33 33.99 84.66 34.98 85 36 C85.99 35.67 86.98 35.34 88 35 C90.1875 35.4375 90.1875 35.4375 92 36 C92 36.66 92 37.32 92 38 C92.61875 38.309375 93.2375 38.61875 93.875 38.9375 C95.25 39.625 96.625 40.3125 98 41 C98 41.66 98 42.32 98 43 C98.515625 43.103125 99.03125 43.20625 99.5625 43.3125 C102 44 102 44 105.5625 45.625 C108.90396503 47.39086846 108.90396503 47.39086846 112 46 C112.495 48.475 112.495 48.475 113 51 C113.99 50.67 114.98 50.34 116 50 C118.6875 50.9375 118.6875 50.9375 121 52 C121.33 50.35 121.66 48.7 122 47 C123.485 47.495 123.485 47.495 125 48 C125.495 47.01 125.495 47.01 126 46 C126.99 47.98 126.99 47.98 128 50 C126.68 50.33 125.36 50.66 124 51 C125.093125 51.598125 126.18625 52.19625 127.3125 52.8125 C130.70560264 54.75239504 133.21999845 56.4399969 135 60 C135.99 60 136.98 60 138 60 C138 60.66 138 61.32 138 62 C139.918125 62.185625 139.918125 62.185625 141.875 62.375 C145.75 62.75 145.75 62.75 148 65 C149.134375 65.474375 150.26875 65.94875 151.4375 66.4375 C154.63261 67.83886403 155.6801997 68.6801997 158 71 C159.65449105 71.38929201 161.32546201 71.708776 163 72 C168.87186506 73.64456371 173.76966721 75.90054353 179 79 C182.3609631 80.64561679 185.1879825 82 189 82 C191.34824702 82.9644586 193.68191636 83.96514123 196 85 C196.99 85.33 197.98 85.66 199 86 C199 86.66 199 87.32 199 88 C199.9075 87.95875 200.815 87.9175 201.75 87.875 C204.8782046 87.99531556 206.38614006 88.3914708 209 90 C209 90.66 209 91.32 209 92 C209.886875 91.896875 210.77375 91.79375 211.6875 91.6875 C216.055969 92.09961972 217.0352047 93.88696494 220 97 C222.87064083 98.26248906 222.87064083 98.26248906 226 99 C227.29236208 99.37259633 228.58403246 99.74760022 229.875 100.125 C230.90625 100.41375 231.9375 100.7025 233 101 C233 101.66 233 102.32 233 103 C233.66 103 234.32 103 235 103 C235 103.66 235 104.32 235 105 C235.556875 105.12375 236.11375 105.2475 236.6875 105.375 C239.22114364 106.05976855 241.57921032 106.99133763 244 108 C244 108.33 244 108.66 244 109 C237.35362393 109.33105956 232.89545154 108.64070402 226.9140625 105.81640625 C226.17937241 105.48574158 225.44468231 105.1550769 224.68772888 104.81439209 C222.32580881 103.74644657 219.97562623 102.6550488 217.625 101.5625 C215.98686384 100.81594587 214.34810647 100.07075341 212.70874023 99.3269043 C204.07778455 95.3982188 195.47775178 91.39881985 186.93212891 87.28759766 C179.56995801 83.75421772 172.11184029 80.44012507 164.65411377 77.11431885 C154.38625818 72.53422604 144.15554612 67.87756216 133.9375 63.1875 C122.0794319 57.7459338 110.18362082 52.39867835 98.25 47.125 C84.79053591 41.17675386 71.41320751 35.06601068 58.06607056 28.87014771 C44.22223747 22.44651582 30.30898694 16.19212475 16.34375 10.03710938 C15.6238942 9.71939072 14.90403839 9.40167206 14.16236877 9.07432556 C12.83320473 8.48804508 11.50345209 7.90309615 10.17295837 7.31983948 C6.39107334 5.65264547 2.6826258 3.8759485 -1 2 C-0.67 1.34 -0.34 0.68 0 0 Z " fill="#7111B1" transform="translate(152,251)"/>
<path d="M0 0 C0.99 0.99 0.99 0.99 2 2 C1.030625 2.61875 0.06125 3.2375 -0.9375 3.875 C-4.02835362 5.65678846 -4.02835362 5.65678846 -5 8 C-6.65 8 -8.3 8 -10 8 C-10.33 8.99 -10.66 9.98 -11 11 C-13.00390625 11.80859375 -13.00390625 11.80859375 -15.5625 12.4375 C-19.75600913 13.57411446 -23.34510257 15.05197515 -27.171875 17.08203125 C-29.69224125 18.34759977 -32.30365876 19.19109763 -35 20 C-35 20.66 -35 21.32 -35 22 C-35.81082031 22.29132812 -36.62164062 22.58265625 -37.45703125 22.8828125 C-43.09823565 24.97117455 -48.46197923 27.13043222 -53.6875 30.125 C-58.02402103 32.60482874 -62.16437012 34.15142678 -67.00390625 35.359375 C-69.20179426 35.89699483 -69.20179426 35.89699483 -71 38 C-72.175625 38.309375 -73.35125 38.61875 -74.5625 38.9375 C-76.2640625 39.4634375 -76.2640625 39.4634375 -78 40 C-78.33 40.99 -78.66 41.98 -79 43 C-81.8359375 44.60546875 -81.8359375 44.60546875 -85.375 46.1875 C-86.53773438 46.71730469 -87.70046875 47.24710938 -88.8984375 47.79296875 C-92 49 -92 49 -95 49 C-95 49.66 -95 50.32 -95 51 C-98.38447652 53.53835739 -101.56129268 54.36778726 -105.63671875 55.2734375 C-108.58213684 56.178971 -111.14322922 57.51375297 -113.875 58.9375 C-118.35896219 61.2693851 -122.56597399 62.85040463 -127.4296875 64.1484375 C-130.5218949 65.17290743 -133.24663251 66.60285579 -136.125 68.125 C-140.9248157 70.63033016 -144.60750754 71.79259644 -150 72 C-150.495 73.485 -150.495 73.485 -151 75 C-155.24422333 78.03158809 -159.74880241 80 -165 80 C-165 80.66 -165 81.32 -165 82 C-184.61702128 90 -184.61702128 90 -188 90 C-188 90.66 -188 91.32 -188 92 C-189.093125 92.28875 -190.18625 92.5775 -191.3125 92.875 C-195.04013845 93.81893204 -195.04013845 93.81893204 -198 96 C-198.89074219 96.29132813 -199.78148437 96.58265625 -200.69921875 96.8828125 C-204.61521043 98.20822507 -208.14435488 99.98570664 -211.8125 101.875 C-227.84762093 110 -227.84762093 110 -232 110 C-232 110.66 -232 111.32 -232 112 C-232.99 112.495 -232.99 112.495 -234 113 C-230.37 113.33 -226.74 113.66 -223 114 C-223 114.33 -223 114.66 -223 115 C-227.95 115 -232.9 115 -238 115 C-237 111 -237 111 -235.44140625 109.8046875 C-234.82136719 109.49789062 -234.20132813 109.19109375 -233.5625 108.875 C-231.23311095 107.69814791 -229.8816171 106.8816171 -228 105 C-226.39125 104.7834375 -226.39125 104.7834375 -224.75 104.5625 C-218.68323884 103.65248583 -215.18755604 101.33711161 -211 97 C-210.34 97 -209.68 97 -209 97 C-207.7625 96.01 -207.7625 96.01 -206.5 95 C-204 93 -204 93 -202 93 C-202 92.34 -202 91.68 -202 91 C-201.04287109 90.70996094 -201.04287109 90.70996094 -200.06640625 90.4140625 C-199.24011719 90.15367187 -198.41382813 89.89328125 -197.5625 89.625 C-196.73878906 89.36976563 -195.91507813 89.11453125 -195.06640625 88.8515625 C-192.82201984 88.19117773 -192.82201984 88.19117773 -192 86 C-188.01550313 84.04534116 -185.47725284 83 -181 83 C-180.67 82.34 -180.34 81.68 -180 81 C-176.46149526 79.18293 -174.74718758 78.94610349 -171 80 C-169.32457024 79.71395102 -167.65614657 79.38218767 -166 79 C-165.01 79 -164.02 79 -163 79 C-163 78.34 -163 77.68 -163 77 C-162.34 77 -161.68 77 -161 77 C-160.67 76.34 -160.34 75.68 -160 75 C-158.515 75.495 -158.515 75.495 -157 76 C-157 75.34 -157 74.68 -157 74 C-156.34 73.67 -155.68 73.34 -155 73 C-154.5359375 71.7625 -154.5359375 71.7625 -154.0625 70.5 C-153.711875 69.675 -153.36125 68.85 -153 68 C-152.01 67.67 -151.02 67.34 -150 67 C-149.67 66.67 -149.34 66.34 -149 66 C-147.88625 65.690625 -146.7725 65.38125 -145.625 65.0625 C-141.94718047 64.18020781 -141.94718047 64.18020781 -139 62 C-137.68 62.66 -136.36 63.32 -135 64 C-134.54625 63.505 -134.0925 63.01 -133.625 62.5 C-132 61 -132 61 -130 61 C-130.33 60.01 -130.66 59.02 -131 58 C-129.741875 57.79375 -128.48375 57.5875 -127.1875 57.375 C-120.41003921 55.89511141 -114.78821059 52.21613782 -108.86328125 48.75 C-107 48 -107 48 -104 49 C-104 48.34 -104 47.68 -104 47 C-100.25 45 -100.25 45 -98 45 C-94.73102252 43.51410115 -91.90641289 41.9317594 -89 39.8125 C-85.65130646 37.78933098 -83.83774081 37.63450088 -80 38 C-80 37.34 -80 36.68 -80 36 C-76.92382812 35.70703125 -76.92382812 35.70703125 -73.84765625 35.4140625 C-73.23792969 35.27742187 -72.62820312 35.14078125 -72 35 C-71.67 34.34 -71.34 33.68 -71 33 C-66.42916715 29.08214327 -61.85811731 27.89145263 -56 27 C-55.01 26.67 -54.02 26.34 -53 26 C-53 25.34 -53 24.68 -53 24 C-52.47792969 23.76925781 -51.95585937 23.53851562 -51.41796875 23.30078125 C-50.31388672 22.81158203 -50.31388672 22.81158203 -49.1875 22.3125 C-48.3728125 21.9515625 -47.558125 21.590625 -46.71875 21.21875 C-44.83862076 20.37593345 -42.96391557 19.52095021 -41.09375 18.65625 C-40.1346875 18.2128125 -39.175625 17.769375 -38.1875 17.3125 C-37.29417969 16.89613281 -36.40085937 16.47976563 -35.48046875 16.05078125 C-33 15 -33 15 -30.80078125 14.48046875 C-28.76417707 14.09812335 -28.76417707 14.09812335 -27 12 C-25.45910074 11.30420088 -23.89225789 10.66488854 -22.3125 10.0625 C-19.24985547 8.87539427 -16.20083504 7.68254846 -13.1875 6.375 C-11.26568539 5.54598193 -9.33088135 4.74509766 -7.375 4 C-4.74767758 2.89375898 -2.41083075 1.51537933 0 0 Z " fill="#660AA3" transform="translate(310,565)"/>
<path d="M0 0 C0.66 0 1.32 0 2 0 C2.01458252 1.08007324 2.02916504 2.16014648 2.04418945 3.27294922 C2.10207546 7.27263838 2.17930773 11.27175876 2.26245117 15.27099609 C2.29574643 17.00332421 2.32376397 18.735762 2.34643555 20.46826172 C2.37989807 22.95588007 2.43220658 25.44248904 2.48828125 27.9296875 C2.49786613 29.09538773 2.49786613 29.09538773 2.50764465 30.28463745 C2.53966898 32.69967927 2.53966898 32.69967927 3 36 C3.99 36.66 4.98 37.32 6 38 C6.99 37.505 6.99 37.505 8 37 C7.7525 37.928125 7.7525 37.928125 7.5 38.875 C6.92365356 40.96063386 6.92365356 40.96063386 7 43 C7 43.66 7 44.32 7 45 C7.7734375 43.9790625 7.7734375 43.9790625 8.5625 42.9375 C11 41 11 41 14.75 41.25 C15.8225 41.4975 16.895 41.745 18 42 C18 42.99 18 43.98 18 45 C17.34 45.66 16.68 46.32 16 47 C15.79527165 48.91494687 15.79527165 48.91494687 15.9375 51 C16.09830508 54.80338983 16.09830508 54.80338983 15 57 C13.68 57 12.36 57 11 57 C12.32 57.66 13.64 58.32 15 59 C16.32 57.68 17.64 56.36 19 55 C18.67 54.01 18.34 53.02 18 52 C19.32 51.34 20.64 50.68 22 50 C23.00016187 52.00032373 23.49396008 53.83125748 24 56 C22.68 56.66 21.36 57.32 20 58 C20 58.99 20 59.98 20 61 C19.01 61.495 19.01 61.495 18 62 C17.34444881 64.52733235 17.34444881 64.52733235 17 67 C16.2575 66.79375 15.515 66.5875 14.75 66.375 C11.67669159 65.95591249 10.57213134 66.38050989 8 68 C7.67 67.34 7.34 66.68 7 66 C7.495 65.01 7.495 65.01 8 64 C6.35 63.67 4.7 63.34 3 63 C3 64.32 3 65.64 3 67 C3.66 67.33 4.32 67.66 5 68 C4.505 68.495 4.505 68.495 4 69 C4.2784375 69.9590625 4.2784375 69.9590625 4.5625 70.9375 C4.706875 71.618125 4.85125 72.29875 5 73 C4.01 73.99 4.01 73.99 3 75 C2.7820973 77.95089209 2.68855022 80.81064937 2.68115234 83.76416016 C2.67110672 84.67153427 2.6610611 85.57890839 2.65071106 86.51377869 C2.61974419 89.52219999 2.60280652 92.53053178 2.5859375 95.5390625 C2.56723671 97.62129494 2.54766413 99.70351972 2.5272522 101.78573608 C2.47580996 107.27331027 2.43624908 112.76090905 2.39910889 118.24859619 C2.35914487 123.84548082 2.30801795 129.44226203 2.2578125 135.0390625 C2.16091012 146.02596915 2.0765513 157.01293403 2 168 C1.34 168.33 0.68 168.66 0 169 C0 113.23 0 57.46 0 0 Z M7.3125 56.5 C6.879375 56.995 6.44625 57.49 6 58 C6.33 58.99 6.66 59.98 7 61 C7.66 60.67 8.32 60.34 9 60 C9.33 60.66 9.66 61.32 10 62 C10.33 61.01 10.66 60.02 11 59 C10.34 58.67 9.68 58.34 9 58 C9.99 57.01 10.98 56.02 12 55 C8.99740483 54.66781808 8.99740483 54.66781808 7.3125 56.5 Z " fill="#8B13DA" transform="translate(72,46)"/>
<path d="M0 0 C0.99 0.99 0.99 0.99 2 2 C1.030625 2.61875 0.06125 3.2375 -0.9375 3.875 C-4.02835362 5.65678846 -4.02835362 5.65678846 -5 8 C-6.65 8 -8.3 8 -10 8 C-10.33 8.99 -10.66 9.98 -11 11 C-13.00390625 11.80859375 -13.00390625 11.80859375 -15.5625 12.4375 C-19.75600913 13.57411446 -23.34510257 15.05197515 -27.171875 17.08203125 C-29.69224125 18.34759977 -32.30365876 19.19109763 -35 20 C-35 20.66 -35 21.32 -35 22 C-35.81082031 22.29132812 -36.62164062 22.58265625 -37.45703125 22.8828125 C-43.09823565 24.97117455 -48.46197923 27.13043222 -53.6875 30.125 C-58.02402103 32.60482874 -62.16437012 34.15142678 -67.00390625 35.359375 C-69.20179426 35.89699483 -69.20179426 35.89699483 -71 38 C-73.33010909 38.67784992 -75.66359824 39.34416793 -78 40 C-78.99 40.66 -79.98 41.32 -81 42 C-82.81680693 42.74970647 -84.65248341 43.45453027 -86.5 44.125 C-87.4590625 44.47820313 -88.418125 44.83140625 -89.40625 45.1953125 C-92 46 -92 46 -95 46 C-95 46.66 -95 47.32 -95 48 C-95.99 48 -96.98 48 -98 48 C-98.33 48.99 -98.66 49.98 -99 51 C-100.97296468 51.74286932 -102.98135734 52.39211329 -105 53 C-106.29994772 53.54443687 -107.59142022 54.10942814 -108.875 54.69140625 C-109.55046875 54.99626953 -110.2259375 55.30113281 -110.921875 55.61523438 C-112.30876969 56.24741852 -113.69419072 56.88284553 -115.078125 57.52148438 C-119.04108573 59.30254783 -122.61536813 60.6249135 -127 61 C-129.375 60.0625 -129.375 60.0625 -131 59 C-131 58.67 -131 58.34 -131 58 C-129.741875 57.79375 -128.48375 57.5875 -127.1875 57.375 C-120.41003921 55.89511141 -114.78821059 52.21613782 -108.86328125 48.75 C-107 48 -107 48 -104 49 C-104 48.34 -104 47.68 -104 47 C-100.25 45 -100.25 45 -98 45 C-94.73102252 43.51410115 -91.90641289 41.9317594 -89 39.8125 C-85.65130646 37.78933098 -83.83774081 37.63450088 -80 38 C-80 37.34 -80 36.68 -80 36 C-76.92382812 35.70703125 -76.92382812 35.70703125 -73.84765625 35.4140625 C-72.93306641 35.20910156 -72.93306641 35.20910156 -72 35 C-71.505 34.01 -71.505 34.01 -71 33 C-66.42916715 29.08214327 -61.85811731 27.89145263 -56 27 C-55.01 26.67 -54.02 26.34 -53 26 C-53 25.34 -53 24.68 -53 24 C-52.47792969 23.76925781 -51.95585937 23.53851562 -51.41796875 23.30078125 C-50.31388672 22.81158203 -50.31388672 22.81158203 -49.1875 22.3125 C-48.3728125 21.9515625 -47.558125 21.590625 -46.71875 21.21875 C-44.83862076 20.37593345 -42.96391557 19.52095021 -41.09375 18.65625 C-40.1346875 18.2128125 -39.175625 17.769375 -38.1875 17.3125 C-37.29417969 16.89613281 -36.40085937 16.47976563 -35.48046875 16.05078125 C-33 15 -33 15 -30.80078125 14.48046875 C-28.76417707 14.09812335 -28.76417707 14.09812335 -27 12 C-25.45910074 11.30420088 -23.89225789 10.66488854 -22.3125 10.0625 C-19.24985547 8.87539427 -16.20083504 7.68254846 -13.1875 6.375 C-11.26568539 5.54598193 -9.33088135 4.74509766 -7.375 4 C-4.74767758 2.89375898 -2.41083075 1.51537933 0 0 Z " fill="#6F0AB2" transform="translate(310,565)"/>
<path d="M0 0 C2.64 0 5.28 0 8 0 C5.77113933 2.22886067 3.93882837 3.04559496 1.0625 4.3125 C0.0828125 4.74949219 -0.896875 5.18648438 -1.90625 5.63671875 C-3.94746072 6.53619166 -5.98911832 7.43465122 -8.03125 8.33203125 C-8.9903125 8.75871094 -9.949375 9.18539063 -10.9375 9.625 C-11.81277344 10.00914062 -12.68804687 10.39328125 -13.58984375 10.7890625 C-16.02093864 11.90714351 -16.02093864 11.90714351 -17.95703125 13.55859375 C-20.50334558 15.35513292 -22.70799391 15.80309199 -25.75 16.4375 C-31.04546499 17.65306461 -35.2155079 19.4772678 -40 22 C-40.99 22 -41.98 22 -43 22 C-43 22.66 -43 23.32 -43 24 C-43.59538574 24.26216309 -44.19077148 24.52432617 -44.80419922 24.79443359 C-47.49660751 25.98317313 -50.18581363 27.17899078 -52.875 28.375 C-53.81214844 28.7875 -54.74929688 29.2 -55.71484375 29.625 C-56.61074219 30.02460938 -57.50664062 30.42421875 -58.4296875 30.8359375 C-59.25710449 31.20251465 -60.08452148 31.5690918 -60.93701172 31.94677734 C-63.14687595 32.94137141 -63.14687595 32.94137141 -65 35 C-66.84765625 35.7109375 -66.84765625 35.7109375 -69.0625 36.375 C-75.70280938 38.49650459 -81.85852596 41.40359579 -88.0625 44.5625 C-91.63774649 46.37491309 -95.18842608 47.85764909 -98.9609375 49.1953125 C-101.27505949 50.10854838 -103.42195254 51.21965589 -105.625 52.375 C-110.81038486 55.03560579 -116.17201633 56.90778704 -121.671875 58.8125 C-125.17108103 60.061043 -128.53387475 61.46979147 -131.90234375 63.03125 C-133.40338501 63.72446831 -134.91832461 64.38790032 -136.44140625 65.03125 C-137.24449219 65.3715625 -138.04757812 65.711875 -138.875 66.0625 C-139.95394531 66.51302734 -139.95394531 66.51302734 -141.0546875 66.97265625 C-143.07510554 67.91098667 -143.07510554 67.91098667 -144.55859375 69.609375 C-146 71 -146 71 -149.1875 71.1875 C-150.5796875 71.0946875 -150.5796875 71.0946875 -152 71 C-150.625 69.5 -150.625 69.5 -149 68 C-148.34 68 -147.68 68 -147 68 C-146.67 66.68 -146.34 65.36 -146 64 C-144.515 63.8453125 -144.515 63.8453125 -143 63.6875 C-135.40278484 62.56535644 -128.90881934 58.99127435 -122.1484375 55.54296875 C-118.1428277 53.57992176 -114.04493038 51.91288068 -109.9140625 50.234375 C-105.50273687 48.36577058 -101.24895703 46.20908164 -97 44 C-97.33 43.34 -97.66 42.68 -98 42 C-97.09507812 41.90912109 -97.09507812 41.90912109 -96.171875 41.81640625 C-95.37265625 41.73261719 -94.5734375 41.64882813 -93.75 41.5625 C-92.96109375 41.48128906 -92.1721875 41.40007813 -91.359375 41.31640625 C-89.15271556 41.02048007 -87.11251991 40.70573121 -85 40 C-84.505 39.01 -84.505 39.01 -84 38 C-76.94604245 34.42437324 -69.43173773 32.1160381 -61.8125 30.08984375 C-58.69699943 28.88258728 -57.32582928 27.33067475 -55 25 C-53.68 25 -52.36 25 -51 25 C-51 24.34 -51 23.68 -51 23 C-50.31808594 22.9071875 -49.63617188 22.814375 -48.93359375 22.71875 C-44.69556289 21.68040422 -41.07197704 19.58420321 -37.25976562 17.52734375 C-33.49956789 15.56300001 -30.21770638 14.46362574 -26 14 C-26 13.34 -26 12.68 -26 12 C-25.13117188 11.67386719 -24.26234375 11.34773438 -23.3671875 11.01171875 C-22.21476563 10.57472656 -21.06234375 10.13773437 -19.875 9.6875 C-18.73804688 9.25824219 -17.60109375 8.82898438 -16.4296875 8.38671875 C-12.98892365 7.05595758 -12.98892365 7.05595758 -9.78125 5.34375 C-6.62235884 3.81754416 -4.46428224 3.75255127 -1 4 C-0.67 2.68 -0.34 1.36 0 0 Z " fill="#5C0A92" transform="translate(524,473)"/>
<path d="M0 0 C1.75 0.875 1.75 0.875 3.75 2.875 C0.05764483 6.32119816 -3.58805224 7.91866709 -8.22265625 9.66796875 C-12.56420086 11.3989846 -16.76391298 13.40736798 -20.98388672 15.41333008 C-30.39978895 19.875 -30.39978895 19.875 -34.25 19.875 C-34.25 20.535 -34.25 21.195 -34.25 21.875 C-35.44882812 22.31199219 -35.44882812 22.31199219 -36.671875 22.7578125 C-43.42999465 25.28020927 -49.85415951 28.09550999 -56.265625 31.39453125 C-60.28448675 33.38818126 -64.39766609 35.09109202 -68.5546875 36.7734375 C-70.79805379 37.69029155 -72.98943839 38.66935025 -75.1875 39.6875 C-78.15388015 40.83772904 -80.10900298 41.16054518 -83.25 40.875 C-83.58 40.215 -83.91 39.555 -84.25 38.875 C-83.68152344 38.69324219 -83.11304688 38.51148438 -82.52734375 38.32421875 C-77.64652909 36.7353058 -72.94564008 34.96195115 -68.25 32.875 C-66.6103125 32.194375 -66.6103125 32.194375 -64.9375 31.5 C-61.03523963 29.84904369 -57.31793421 27.85772393 -53.58203125 25.86328125 C-51.25 24.875 -51.25 24.875 -47.25 24.875 C-46.92 24.215 -46.59 23.555 -46.25 22.875 C-43.1875 22.25 -43.1875 22.25 -40.25 21.875 C-40.25 21.215 -40.25 20.555 -40.25 19.875 C-36.08743293 17.77802051 -31.90597234 15.73223376 -27.6875 13.75 C-26.59308594 13.23179687 -25.49867188 12.71359375 -24.37109375 12.1796875 C-21.25 10.875 -21.25 10.875 -18.41015625 10.3203125 C-17.69730469 10.17335938 -16.98445313 10.02640625 -16.25 9.875 C-15.92 9.215 -15.59 8.555 -15.25 7.875 C-13.6 7.875 -11.95 7.875 -10.25 7.875 C-9.940625 7.00875 -9.940625 7.00875 -9.625 6.125 C-7.46827693 2.59581679 -4.30235515 -0.23901973 0 0 Z " fill="#620A9C" transform="translate(315.25,565.125)"/>
<path d="M0 0 C0 0.66 0 1.32 0 2 C1.12359581 3.79081118 1.12359581 3.79081118 3 5 C5.56740432 4.75319799 5.56740432 4.75319799 8 4 C8.66 4 9.32 4 10 4 C10.33 4.99 10.66 5.98 11 7 C14.76865248 9.27361255 14.76865248 9.27361255 19 10 C19 10.66 19 11.32 19 12 C20.85625 12.1546875 20.85625 12.1546875 22.75 12.3125 C26.28064473 12.74992501 28.41670271 13.41670271 31 16 C31.495 16.99 31.495 16.99 32 18 C33.99281757 18.25713775 35.98829861 18.50836152 37.9921875 18.65625 C40 19 40 19 43 21 C43 21.66 43 22.32 43 23 C43.99 22.67 44.98 22.34 46 22 C48.625 22.8125 48.625 22.8125 51 24 C51.495 24.99 51.495 24.99 52 26 C52.66 26 53.32 26 54 26 C54 26.66 54 27.32 54 28 C54.680625 28.0825 55.36125 28.165 56.0625 28.25 C59.95416455 29.24361648 62.62912121 30.79596387 66 33 C66.33 33.99 66.66 34.98 67 36 C62.3217279 34.54230043 57.91460652 32.67968649 53.48046875 30.61328125 C52.39415161 30.11189133 52.39415161 30.11189133 51.28588867 29.60037231 C49.72808096 28.88100712 48.1709201 28.16023979 46.61434937 27.4382019 C42.48533263 25.52294417 38.35167518 23.61774248 34.21875 21.7109375 C33.37491257 21.3212529 32.53107513 20.9315683 31.66166687 20.53007507 C22.85274974 16.46440085 14.02220913 12.44674979 5.1875 8.4375 C3.74438324 7.78231131 2.30126796 7.12711934 0.8581543 6.47192383 C-2.4275297 4.98047186 -5.71362321 3.4899249 -9 2 C-9 1.34 -9 0.68 -9 0 C-5.52176885 -1.15941038 -3.54104422 -0.70820884 0 0 Z " fill="#7314B2" transform="translate(81,215)"/>
<path d="M0 0 C0.66 0.33 1.32 0.66 2 1 C-0.36292656 3.52588702 -1.66462511 4.88820837 -5 6 C-6.34025278 7.54420559 -6.34025278 7.54420559 -7.625 9.375 C-10.59547449 12.99734919 -13.28312275 14.2071039 -17.75390625 15.39453125 C-20.23220259 16.06259374 -22.61682257 17.04672903 -25 18 C-25.33 38.13 -25.66 58.26 -26 79 C-26.33 79 -26.66 79 -27 79 C-28.08627755 56.9942125 -28.1109084 35.02640819 -28 13 C-24.05368602 11.12020647 -20.10269039 9.25076233 -16.14697266 7.39086914 C-14.80122671 6.75634392 -13.45681516 6.11898071 -12.11376953 5.47875977 C-10.18603532 4.56041849 -8.25377464 3.65230085 -6.3203125 2.74609375 C-5.15773926 2.19622803 -3.99516602 1.6463623 -2.79736328 1.07983398 C-1.8742334 0.72348877 -0.95110352 0.36714355 0 0 Z " fill="#8A0CDC" transform="translate(100,490)"/>
<path d="M0 0 C0.99 0.99 1.98 1.98 3 3 C2.01 3.33 1.02 3.66 0 4 C-0.33 4.66 -0.66 5.32 -1 6 C-1.66 6 -2.32 6 -3 6 C-3 6.66 -3 7.32 -3 8 C-9.75 11 -9.75 11 -12 11 C-12 11.66 -12 12.32 -12 13 C-13.093125 13.28875 -14.18625 13.5775 -15.3125 13.875 C-19.04013845 14.81893204 -19.04013845 14.81893204 -22 17 C-22.89074219 17.29132812 -23.78148437 17.58265625 -24.69921875 17.8828125 C-28.61521043 19.20822507 -32.14435488 20.98570664 -35.8125 22.875 C-51.84762093 31 -51.84762093 31 -56 31 C-56 31.66 -56 32.32 -56 33 C-56.99 33.495 -56.99 33.495 -58 34 C-54.37 34.33 -50.74 34.66 -47 35 C-47 35.33 -47 35.66 -47 36 C-51.95 36 -56.9 36 -62 36 C-61 32 -61 32 -59.44140625 30.8046875 C-58.82136719 30.49789062 -58.20132813 30.19109375 -57.5625 29.875 C-55.23311095 28.69814791 -53.8816171 27.8816171 -52 26 C-50.9275 25.855625 -49.855 25.71125 -48.75 25.5625 C-42.68323884 24.65248583 -39.18755604 22.33711161 -35 18 C-34.34 18 -33.68 18 -33 18 C-32.175 17.34 -31.35 16.68 -30.5 16 C-28 14 -28 14 -26 14 C-26 13.34 -26 12.68 -26 12 C-25.04287109 11.70996094 -25.04287109 11.70996094 -24.06640625 11.4140625 C-23.24011719 11.15367187 -22.41382813 10.89328125 -21.5625 10.625 C-20.73878906 10.36976563 -19.91507813 10.11453125 -19.06640625 9.8515625 C-16.82201984 9.19117773 -16.82201984 9.19117773 -16 7 C-12.01550313 5.04534116 -9.47725284 4 -5 4 C-4.67 3.34 -4.34 2.68 -4 2 C-1.9375 0.875 -1.9375 0.875 0 0 Z " fill="#6A0AAA" transform="translate(134,644)"/>
<path d="M0 0 C0.495 0.99 0.495 0.99 1 2 C0.01 2.33 -0.98 2.66 -2 3 C-2.33 3.66 -2.66 4.32 -3 5 C-3.99 5 -4.98 5 -6 5 C-6 5.66 -6 6.32 -6 7 C-6.66 7 -7.32 7 -8 7 C-8 7.66 -8 8.32 -8 9 C-13.93544432 11.68294074 -19.91789617 14.22606561 -25.9453125 16.6953125 C-28.93524375 17.97234196 -31.83139848 19.38149593 -34.75 20.8125 C-39.4701755 23.00474406 -42.84101652 23.48669656 -48 23 C-47.505 21.515 -47.505 21.515 -47 20 C-45.865625 19.87625 -44.73125 19.7525 -43.5625 19.625 C-42.386875 19.41875 -41.21125 19.2125 -40 19 C-39.67 18.34 -39.34 17.68 -39 17 C-36 16 -36 16 -33 17 C-33 16.34 -33 15.68 -33 15 C-31 14 -29 13 -27 12 C-26.278125 11.608125 -25.55625 11.21625 -24.8125 10.8125 C-23 10 -23 10 -20 10 C-20 9.34 -20 8.68 -20 8 C-19.31035156 7.75765625 -18.62070312 7.5153125 -17.91015625 7.265625 C-11.81226743 5.09079497 -5.87233085 2.72592148 0 0 Z " fill="#710AB4" transform="translate(584,443)"/>
<path d="M0 0 C0.33 0 0.66 0 1 0 C2.04336891 21.11157088 1.99433764 41.88619232 1 63 C1.66 63 2.32 63 3 63 C3.33 62.34 3.66 61.68 4 61 C3.86722656 61.60585938 3.73445313 62.21171875 3.59765625 62.8359375 C2.32432636 68.87728368 1.49744596 74.84737892 1 81 C0.34 81 -0.32 81 -1 81 C-1.02355213 73.83497323 -1.04112688 66.66995528 -1.05181217 59.50489712 C-1.05695001 56.17503879 -1.06445396 52.84522789 -1.07543945 49.51538086 C-1.12855107 32.97892158 -0.90276957 16.51345692 0 0 Z " fill="#8B0ADF" transform="translate(73,570)"/>
<path d="M0 0 C-0.1484375 1.8046875 -0.1484375 1.8046875 -1 4 C-5.81926494 7.17737026 -11.34379935 9.71155681 -16.9375 11.1875 C-20.1153399 12.03060038 -22.22743526 13.26714704 -25 15 C-28.58749865 16.660879 -32.04639739 18.05069484 -35.875 19 C-36.90625 19.33 -37.9375 19.66 -39 20 C-39.33 20.99 -39.66 21.98 -40 23 C-42.36328125 24.16796875 -42.36328125 24.16796875 -45.3125 25.1875 C-46.27800781 25.53167969 -47.24351562 25.87585938 -48.23828125 26.23046875 C-51 27 -51 27 -55 27 C-55 27.66 -55 28.32 -55 29 C-55.99 29 -56.98 29 -58 29 C-57.505 27.515 -57.505 27.515 -57 26 C-55.3380679 25.46818173 -53.66982133 24.94891642 -51.9765625 24.52734375 C-48.23756492 23.52978511 -44.27264296 22.29771241 -41.52514648 19.49609375 C-38.94121499 16.96138394 -35.42579745 16.15622759 -32.0625 15 C-27.5162336 13.4286532 -23.79718799 12.02902123 -20 9 C-16.75 8.3125 -16.75 8.3125 -14 8 C-14 7.34 -14 6.68 -14 6 C-13.34 6 -12.68 6 -12 6 C-12 5.34 -12 4.68 -12 4 C-11.01 4 -10.02 4 -9 4 C-8.67 3.01 -8.34 2.02 -8 1 C-5.07175348 0.02391783 -3.04386724 -0.08226668 0 0 Z " fill="#5E0A97" transform="translate(590,444)"/>
<path d="M0 0 C-2.04759361 3.07139042 -2.44381592 3.44804821 -5.625 4.75 C-6.82576172 5.25660156 -6.82576172 5.25660156 -8.05078125 5.7734375 C-9.02402344 6.17820312 -9.99726563 6.58296875 -11 7 C-13.60875891 8.1144902 -16.21124813 9.24311304 -18.8125 10.375 C-19.50077881 10.67325684 -20.18905762 10.97151367 -20.89819336 11.27880859 C-26.19231 13.59346878 -31.3406332 16.13351742 -36.44921875 18.8359375 C-39.02696588 20.01230602 -41.17738275 20.74033845 -44 21 C-44.66 20.34 -45.32 19.68 -46 19 C-43.35261084 17.5393715 -42.10551666 17 -39 17 C-39 16.34 -39 15.68 -39 15 C-37.68 15 -36.36 15 -35 15 C-34.67 14.34 -34.34 13.68 -34 13 C-31.9609375 12.0703125 -31.9609375 12.0703125 -29.375 11.125 C-22.68130764 8.55050294 -16.90909453 5.03547919 -11 1 C-10.505 1.495 -10.505 1.495 -10 2 C-9.67 1.34 -9.34 0.68 -9 0 C-5.52176885 -1.15941038 -3.54104422 -0.70820884 0 0 Z " fill="#6E0AB1" transform="translate(428,516)"/>
<path d="M0 0 C0.66 0.33 1.32 0.66 2 1 C1.67 1.66 1.34 2.32 1 3 C0.34 3 -0.32 3 -1 3 C-1.33 3.99 -1.66 4.98 -2 6 C-7.54000682 10.07540731 -14.55144238 14.31560652 -21.4375 15.375 C-25.44389629 16.35216983 -28.60538306 18.71726752 -32 21 C-32 17.38970831 -31.03907418 14.44193324 -30 11 C-29.01 11 -28.02 11 -27 11 C-26.67 9.68 -26.34 8.36 -26 7 C-26 8.32 -26 9.64 -26 11 C-25.01 11 -24.02 11 -23 11 C-22.67 11.33 -22.34 11.66 -22 12 C-21.01 11.01 -20.02 10.02 -19 9 C-18.67 9.33 -18.34 9.66 -18 10 C-17.4225 9.71125 -16.845 9.4225 -16.25 9.125 C-14.79990422 8.39995211 -13.34194309 7.69032616 -11.875 7 C-9.83448849 6.02859623 -9.83448849 6.02859623 -8 4 C-7.34 4.33 -6.68 4.66 -6 5 C-5.67 4.34 -5.34 3.68 -5 3 C-2.5625 1.3125 -2.5625 1.3125 0 0 Z " fill="#730AB7" transform="translate(105,656)"/>
<path d="M0 0 C-15.87494875 8.11473807 -15.87494875 8.11473807 -23.8359375 11.13671875 C-26.00520302 12.00207557 -28.04975807 12.99282897 -30.125 14.0625 C-33.36065748 15.72915657 -36.62345056 17.05077515 -40.05078125 18.26953125 C-42.00599109 19.00224516 -43.86197349 19.86033292 -45.75 20.75 C-48.89505519 21.95963661 -49.98398521 22.32704651 -53 21 C-48.61669916 17.65484936 -44.59955917 16.10280347 -39.26953125 14.7109375 C-36.75635975 14.04023752 -36.75635975 14.04023752 -34 12 C-33.01 12 -32.02 12 -31 12 C-31 11.34 -31 10.68 -31 10 C-30.41992188 9.82984375 -29.83984375 9.6596875 -29.2421875 9.484375 C-25.40592226 8.29424651 -22.29533041 7.19889599 -18.9375 4.9375 C-15.84051644 2.89480872 -13.45976946 2.19746548 -9.890625 1.44140625 C-7.8026017 1.01017922 -7.8026017 1.01017922 -5.1875 -0.1875 C-3 -1 -3 -1 0 0 Z " fill="#5C0A93" transform="translate(372,545)"/>
<path d="M0 0 C0 0.66 0 1.32 0 2 C-1.19882812 2.43699219 -1.19882812 2.43699219 -2.421875 2.8828125 C-9.17999465 5.40520927 -15.60415951 8.22050999 -22.015625 11.51953125 C-26.03448675 13.51318126 -30.14766609 15.21609202 -34.3046875 16.8984375 C-36.54805379 17.81529155 -38.73943839 18.79435025 -40.9375 19.8125 C-43.90388015 20.96272904 -45.85900298 21.28554518 -49 21 C-49.33 20.34 -49.66 19.68 -50 19 C-49.43152344 18.81824219 -48.86304688 18.63648438 -48.27734375 18.44921875 C-43.39652909 16.8603058 -38.69564008 15.08695115 -34 13 C-32.906875 12.54625 -31.81375 12.0925 -30.6875 11.625 C-26.78523963 9.97404369 -23.06793421 7.98272393 -19.33203125 5.98828125 C-17 5 -17 5 -13 5 C-12.67 4.34 -12.34 3.68 -12 3 C-10.0390625 2.1484375 -10.0390625 2.1484375 -7.625 1.375 C-6.83351563 1.11460937 -6.04203125 0.85421875 -5.2265625 0.5859375 C-3 0 -3 0 0 0 Z " fill="#570A8A" transform="translate(281,585)"/>
<path d="M0 0 C0.99 0.33 1.98 0.66 3 1 C0.73272667 2.17407021 -1.53834624 3.33939739 -3.8125 4.5 C-4.45509766 4.83386719 -5.09769531 5.16773438 -5.75976562 5.51171875 C-8.69547699 7.00239084 -10.66126517 8 -14 8 C-14 8.66 -14 9.32 -14 10 C-17.37466789 12.53100092 -20.53584803 13.37074412 -24.60546875 14.2578125 C-28.81308022 15.56196614 -32.59705052 17.76701338 -36.4609375 19.85546875 C-37.29882812 20.23316406 -38.13671875 20.61085938 -39 21 C-39.66 20.67 -40.32 20.34 -41 20 C-39.33003561 16.66007122 -35.61452277 15.89802204 -32.3125 14.5 C-31.24999023 14.03787109 -31.24999023 14.03787109 -30.16601562 13.56640625 C-26.97759951 12.19447466 -23.85712281 10.95479592 -20.54296875 9.90625 C-17.85016641 9.27733042 -17.85016641 9.27733042 -17 7 C-16.01 7 -15.02 7 -14 7 C-14 6.34 -14 5.68 -14 5 C-13.15695313 4.72285156 -12.31390625 4.44570313 -11.4453125 4.16015625 C-10.34960938 3.79792969 -9.25390625 3.43570313 -8.125 3.0625 C-6.48917969 2.52302734 -6.48917969 2.52302734 -4.8203125 1.97265625 C-2.09241318 1.10085926 -2.09241318 1.10085926 0 0 Z " fill="#590A8E" transform="translate(229,606)"/>
<path d="M0 0 C0.33 0.66 0.66 1.32 1 2 C1.66 2 2.32 2 3 2 C3.33 1.34 3.66 0.68 4 0 C4.33 0.66 4.66 1.32 5 2 C1.77488975 6.83766537 -2.50890961 8.44817011 -8 10 C-8.99 10 -9.98 10 -11 10 C-11 10.66 -11 11.32 -11 12 C-12.57725347 12.70133599 -14.16211333 13.385583 -15.75 14.0625 C-16.63171875 14.44535156 -17.5134375 14.82820312 -18.421875 15.22265625 C-21.15256309 16.04600008 -22.36901347 15.9773992 -25 15 C-24.34 15 -23.68 15 -23 15 C-22.67 14.01 -22.34 13.02 -22 12 C-17.97396166 9.71418851 -13.62463797 8.56644019 -9 9 C-9 8.34 -9 7.68 -9 7 C-8.34 7 -7.68 7 -7 7 C-6.67 6.34 -6.34 5.68 -6 5 C-5.01 5.33 -4.02 5.66 -3 6 C-3 5.34 -3 4.68 -3 4 C-2.34 3.67 -1.68 3.34 -1 3 C-0.67 2.01 -0.34 1.02 0 0 Z " fill="#5E0A96" transform="translate(156,635)"/>
<path d="M0 0 C4.75 0.75 4.75 0.75 7 3 C7.66 3 8.32 3 9 3 C9.99 4.485 9.99 4.485 11 6 C11.99 6 12.98 6 14 6 C15.67099977 6.31088368 17.33871537 6.64080332 19 7 C19.33 7.99 19.66 8.98 20 10 C21.2375 10.495 21.2375 10.495 22.5 11 C23.7375 11.495 23.7375 11.495 25 12 C25.33 12.99 25.66 13.98 26 15 C25.43152344 14.80664062 24.86304688 14.61328125 24.27734375 14.4140625 C23.50519531 14.15367187 22.73304688 13.89328125 21.9375 13.625 C21.12152344 13.34914063 20.30554688 13.07328125 19.46484375 12.7890625 C17.31975289 12.10236146 15.18584775 11.53623708 13 11 C12.01 10.67 11.02 10.34 10 10 C9.67 9.01 9.34 8.02 9 7 C6.90280128 5.97718482 6.90280128 5.97718482 4.4375 5.3125 C3.61121094 5.06113281 2.78492188 4.80976563 1.93359375 4.55078125 C1.29550781 4.36902344 0.65742188 4.18726563 0 4 C0 2.68 0 1.36 0 0 Z " fill="#760ABC" transform="translate(298,312)"/>
<path d="M0 0 C0.66 -0.33 1.32 -0.66 2 -1 C2.2475 -0.38125 2.495 0.2375 2.75 0.875 C4.73550943 4.25036604 7.39388839 4.7979628 11 6 C11.99 5.67 12.98 5.34 14 5 C14 6.98 14 8.96 14 11 C12.3125 11.8125 12.3125 11.8125 10 12 C7.5625 9.75 7.5625 9.75 5 7 C2.04821367 4.98414592 -0.47891813 3.6520522 -4 3 C-4 2.34 -4 1.68 -4 1 C-4.66 0.67 -5.32 0.34 -6 0 C-3.4791665 -1.26041675 -2.64903564 -0.66225891 0 0 Z " fill="#750ABA" transform="translate(139,240)"/>
<path d="M0 0 C0.66 0.33 1.32 0.66 2 1 C-9.88932806 9 -9.88932806 9 -17 9 C-17 9.66 -17 10.32 -17 11 C-17.99 11.495 -17.99 11.495 -19 12 C-15.37 12.33 -11.74 12.66 -8 13 C-8 13.33 -8 13.66 -8 14 C-12.95 14 -17.9 14 -23 14 C-22 10 -22 10 -20.44140625 8.8046875 C-19.82136719 8.49789062 -19.20132813 8.19109375 -18.5625 7.875 C-16.23311095 6.69814791 -14.8816171 5.8816171 -13 4 C-11.9275 3.855625 -10.855 3.71125 -9.75 3.5625 C-5.92359956 2.98853993 -3.40845759 1.74386202 0 0 Z " fill="#600A99" transform="translate(95,666)"/>
<path d="M0 0 C-0.33 0.99 -0.66 1.98 -1 3 C-1.66 3 -2.32 3 -3 3 C-3 3.66 -3 4.32 -3 5 C-4.98 5.33 -6.96 5.66 -9 6 C-9 6.66 -9 7.32 -9 8 C-12.3 8.66 -15.6 9.32 -19 10 C-19 9.34 -19 8.68 -19 8 C-18.443125 7.7525 -17.88625 7.505 -17.3125 7.25 C-14.87270809 6.01995826 -14.87270809 6.01995826 -12.5 4 C-8.15995706 0.52796564 -5.60675011 -0.25485228 0 0 Z " fill="#6F0AB1" transform="translate(156,636)"/>
<path d="M0 0 C0.99 0.99 1.98 1.98 3 3 C2.67 3.66 2.34 4.32 2 5 C1.01 5 0.02 5 -1 5 C0.093125 5.5775 1.18625 6.155 2.3125 6.75 C5.29669132 8.44144447 7.18944814 10.01791458 9 13 C8.67 13.66 8.34 14.32 8 15 C5.36 14.01 2.72 13.02 0 12 C0 11.01 0 10.02 0 9 C-0.99 8.67 -1.98 8.34 -3 8 C-3 5.69 -3 3.38 -3 1 C-2.01 1.33 -1.02 1.66 0 2 C0 1.34 0 0.68 0 0 Z " fill="#760ABC" transform="translate(277,297)"/>
<path d="M0 0 C0 0.66 0 1.32 0 2 C2.08164475 3.07654855 4.14705728 4.05882291 6.32421875 4.9296875 C7.10410156 5.24164063 7.88398438 5.55359375 8.6875 5.875 C9.47511719 6.18179687 10.26273438 6.48859375 11.07421875 6.8046875 C13 8 13 8 14 12 C7.07 9.03 0.14 6.06 -7 3 C-4.74624683 0.74624683 -3.20799182 0 0 0 Z " fill="#7319AF" transform="translate(226,281)"/>
<path d="M0 0 C0.99 0.66 1.98 1.32 3 2 C2.34 2 1.68 2 1 2 C1 2.99 1 3.98 1 5 C0.01 5 -0.98 5 -2 5 C-2.33 5.99 -2.66 6.98 -3 8 C-6.6037898 9.52160014 -9.05220686 10 -13 10 C-12.625 8.0625 -12.625 8.0625 -12 6 C-11.34 5.67 -10.68 5.34 -10 5 C-9.67 4.67 -9.34 4.34 -9 4 C-7.865625 3.690625 -6.73125 3.38125 -5.5625 3.0625 C-1.98637842 2.30338977 -1.98637842 2.30338977 0 0 Z " fill="#700AB3" transform="translate(170,627)"/>
<path d="M0 0 C-2.30368736 1.06652192 -4.64018187 2.06421005 -7 3 C-7.66 2.67 -8.32 2.34 -9 2 C-9 2.66 -9 3.32 -9 4 C-9.763125 4.268125 -10.52625 4.53625 -11.3125 4.8125 C-13.9702085 5.78548 -13.9702085 5.78548 -15.41796875 7.46484375 C-17.20134492 9.19537914 -18.68088226 9.88911538 -21 10.75 C-21.680625 11.01296875 -22.36125 11.2759375 -23.0625 11.546875 C-25 12 -25 12 -28 11 C-22 8 -22 8 -19.75 7.125 C-17.29766629 5.54849976 -16.85729322 3.71476185 -16 1 C-15.34 1.33 -14.68 1.66 -14 2 C-11.98315437 1.38617742 -9.98356483 0.71408334 -8 0 C-4.90775964 -1.0004307 -3.10636175 -0.99847342 0 0 Z " fill="#6D0AAE" transform="translate(482,494)"/>
<path d="M0 0 C0.33 0.99 0.66 1.98 1 3 C0.67 3.66 0.34 4.32 0 5 C0.39938767 7.09821215 0.39938767 7.09821215 1 9 C-1.64738916 10.4606285 -2.89448334 11 -6 11 C-6.28875 10.38125 -6.5775 9.7625 -6.875 9.125 C-7.93720042 6.86674235 -7.93720042 6.86674235 -10 5 C-9.34 5 -8.68 5 -8 5 C-7.67 3.68 -7.34 2.36 -7 1 C-6.34 1.66 -5.68 2.32 -5 3 C-4.319375 2.2575 -4.319375 2.2575 -3.625 1.5 C-2 0 -2 0 0 0 Z " fill="#790BC0" transform="translate(85,89)"/>
<path d="M0 0 C-0.3637442 2.54620938 -0.57966691 3.68180393 -2.671875 5.265625 C-9.6043956 8.54945055 -9.6043956 8.54945055 -14 8 C-14 7.34 -14 6.68 -14 6 C-13.34 6 -12.68 6 -12 6 C-12 5.34 -12 4.68 -12 4 C-11.01 4 -10.02 4 -9 4 C-8.67 3.01 -8.34 2.02 -8 1 C-5.07175348 0.02391783 -3.04386724 -0.08226668 0 0 Z " fill="#6B0AAC" transform="translate(590,444)"/>
<path d="M0 0 C3.67835038 0.70737507 6.69230163 2.27724043 10 4 C10.78375 4.391875 11.5675 4.78375 12.375 5.1875 C12.91125 5.455625 13.4475 5.72375 14 6 C14.33 5.01 14.66 4.02 15 3 C16.32 3.33 17.64 3.66 19 4 C19 4.66 19 5.32 19 6 C17.68 5.67 16.36 5.34 15 5 C15 5.99 15 6.98 15 8 C14.01 8.33 13.02 8.66 12 9 C11.34 8.67 10.68 8.34 10 8 C10 7.34 10 6.68 10 6 C5.545 5.01 5.545 5.01 1 4 C0.67 2.68 0.34 1.36 0 0 Z " fill="#730AB8" transform="translate(154,249)"/>
<path d="M0 0 C0.99 0.33 1.98 0.66 3 1 C0.7965194 2.1560727 -1.41203156 3.29984721 -3.625 4.4375 C-4.24246094 4.76298828 -4.85992187 5.08847656 -5.49609375 5.42382812 C-9.33285611 7.38259628 -12.71743908 8.53221258 -17 9 C-17 8.34 -17 7.68 -17 7 C-16.01 7 -15.02 7 -14 7 C-14 6.34 -14 5.68 -14 5 C-13.15695313 4.72285156 -12.31390625 4.44570313 -11.4453125 4.16015625 C-10.34960938 3.79792969 -9.25390625 3.43570313 -8.125 3.0625 C-7.03445312 2.70285156 -5.94390625 2.34320312 -4.8203125 1.97265625 C-2.09241318 1.10085926 -2.09241318 1.10085926 0 0 Z " fill="#600A99" transform="translate(229,606)"/>
<path d="M0 0 C0.66 0.99 1.32 1.98 2 3 C1.67 3.66 1.34 4.32 1 5 C-1.33333333 5.66666667 -3.66666667 6.33333333 -6 7 C-6.33 7.66 -6.66 8.32 -7 9 C-10.0625 9.625 -10.0625 9.625 -13 10 C-12.67 9.01 -12.34 8.02 -12 7 C-10.34795544 6.29788106 -8.68076231 5.63028587 -7 5 C-6.67 4.34 -6.34 3.68 -6 3 C-4.02477154 1.95191959 -2.02518491 0.9479589 0 0 Z " fill="#700AB4" transform="translate(124,648)"/>
<path d="M0 0 C-7.87746171 5.88183807 -7.87746171 5.88183807 -12.5625 6.375 C-13.7690625 6.189375 -13.7690625 6.189375 -15 6 C-14 4 -14 4 -11 3 C-10.67 2.34 -10.34 1.68 -10 1 C-8.22265625 0.33203125 -8.22265625 0.33203125 -6.0625 -0.1875 C-5.35222656 -0.36667969 -4.64195312 -0.54585937 -3.91015625 -0.73046875 C-2 -1 -2 -1 0 0 Z " fill="#4F0A7C" transform="translate(170,636)"/>
<path d="M0 0 C-5.39459439 3.08467498 -9.79011871 4.55643705 -16 5 C-16 5.66 -16 6.32 -16 7 C-16.99 7 -17.98 7 -19 7 C-18.67 6.01 -18.34 5.02 -18 4 C-16.38745666 3.46248555 -14.765274 2.94314091 -13.11328125 2.54296875 C-9.97482032 1.73659894 -6.96184445 0.59371631 -3.91796875 -0.51171875 C-2 -1 -2 -1 0 0 Z " fill="#550A87" transform="translate(551,466)"/>
<path d="M0 0 C-1.01320312 0.38091797 -1.01320312 0.38091797 -2.046875 0.76953125 C-2.93890625 1.11371094 -3.8309375 1.45789063 -4.75 1.8125 C-5.63171875 2.14894531 -6.5134375 2.48539063 -7.421875 2.83203125 C-10.03317587 3.90178919 -10.03317587 3.90178919 -12.15625 5.625 C-14.53710279 7.40055123 -16.10153033 7.24153914 -19 7 C-19.33 6.34 -19.66 5.68 -20 5 C-19.43152344 4.81824219 -18.86304688 4.63648438 -18.27734375 4.44921875 C-14.48079431 3.21328028 -10.80120128 1.9547243 -7.1875 0.25 C-3.86017895 -1.05483179 -3.20415723 -1.02866653 0 0 Z " fill="#5F0A98" transform="translate(251,599)"/>
<path d="M0 0 C0.33 0.66 0.66 1.32 1 2 C1.66 2 2.32 2 3 2 C3.33 1.34 3.66 0.68 4 0 C4.33 0.66 4.66 1.32 5 2 C2.80714124 5.28928814 2.15238311 5.59463532 -1.4375 6.75 C-2.21996094 7.01296875 -3.00242188 7.2759375 -3.80859375 7.546875 C-6 8 -6 8 -9 7 C-8.34 7 -7.68 7 -7 7 C-6.67 6.34 -6.34 5.68 -6 5 C-5.01 5.33 -4.02 5.66 -3 6 C-3 5.34 -3 4.68 -3 4 C-2.34 3.67 -1.68 3.34 -1 3 C-0.67 2.01 -0.34 1.02 0 0 Z " fill="#660AA3" transform="translate(156,635)"/>
<path d="M0 0 C2.64 0 5.28 0 8 0 C6.6875 1.5 6.6875 1.5 5 3 C4.01 3 3.02 3 2 3 C1.67 3.99 1.34 4.98 1 6 C-1.31 6.33 -3.62 6.66 -6 7 C-3.87219421 4.65941363 -1.88437779 3.29299694 1 2 C0.67 1.34 0.34 0.68 0 0 Z " fill="#640AA0" transform="translate(426,515)"/>
<path d="M0 0 C2.86724686 0.57344937 3.8614515 0.8614515 6 3 C8.31648799 4.03842565 10.64903024 5.0421975 13 6 C13 6.33 13 6.66 13 7 C8.97007218 6.44687265 4.97977076 5.8441938 1 5 C0.67 3.35 0.34 1.7 0 0 Z " fill="#6D0AB0" transform="translate(294,313)"/>
<path d="M0 0 C-6.75 3 -6.75 3 -9 3 C-9 3.66 -9 4.32 -9 5 C-10.65 5 -12.3 5 -14 5 C-13.34 3.68 -12.68 2.36 -12 1 C-11.01 1.33 -10.02 1.66 -9 2 C-8.67 1.34 -8.34 0.68 -8 0 C-4.71585695 -0.95067299 -3.30306592 -1.10102197 0 0 Z " fill="#630A9E" transform="translate(131,652)"/>
<path d="M0 0 C1.32 0.99 2.64 1.98 4 3 C4.66 2.67 5.32 2.34 6 2 C6 2.99 6 3.98 6 5 C7.32 4.67 8.64 4.34 10 4 C10.33 5.32 10.66 6.64 11 8 C10.01 8 9.02 8 8 8 C8 7.34 8 6.68 8 6 C7.01 6.33 6.02 6.66 5 7 C2.23760649 5.58511552 0.19636905 4.19636905 -2 2 C-1.34 2 -0.68 2 0 2 C0 1.34 0 0.68 0 0 Z " fill="#760ABC" transform="translate(92,219)"/>
<path d="M0 0 C0.66 0.66 1.32 1.32 2 2 C0.27398621 2.81917642 -1.4559647 3.63006016 -3.1875 4.4375 C-4.15042969 4.88996094 -5.11335937 5.34242188 -6.10546875 5.80859375 C-8.76631586 6.90381422 -11.16784755 7.54954796 -14 8 C-12.75 6.5 -12.75 6.5 -11 5 C-9.68 5 -8.36 5 -7 5 C-6.67 4.01 -6.34 3.02 -6 2 C-2.9375 0.8125 -2.9375 0.8125 0 0 Z " fill="#750ABB" transform="translate(522,470)"/>
<path d="M0 0 C1.62992692 0.39695637 3.25392235 0.81832493 4.875 1.25 C6.23238281 1.59804688 6.23238281 1.59804688 7.6171875 1.953125 C10 3 10 3 11.3203125 5.109375 C11.54460937 5.73328125 11.76890625 6.3571875 12 7 C10.53984709 6.71758359 9.08190207 6.42373386 7.625 6.125 C6.81289063 5.96257812 6.00078125 5.80015625 5.1640625 5.6328125 C3 5 3 5 1 3 C0.67 2.01 0.34 1.02 0 0 Z " fill="#760ABC" transform="translate(326,326)"/>
<path d="M0 0 C11.42647059 1.63235294 11.42647059 1.63235294 15 6 C14.01 6.495 14.01 6.495 13 7 C10.75689987 6.10333658 8.55245679 5.10853317 6.375 4.0625 C5.18648438 3.49660156 3.99796875 2.93070312 2.7734375 2.34765625 C1.85820312 1.90292969 0.94296875 1.45820313 0 1 C0 0.67 0 0.34 0 0 Z " fill="#7520AD" transform="translate(296,318)"/>
<path d="M0 0 C-3.17495261 2.72138795 -5.95197831 4.82820425 -10 6 C-10.99 5.67 -11.98 5.34 -13 5 C-3.39805825 -1.69902913 -3.39805825 -1.69902913 0 0 Z " fill="#5A0A90" transform="translate(319,568)"/>
<path d="M0 0 C1.65 0 3.3 0 5 0 C4.34 0.66 3.68 1.32 3 2 C6.63 2.33 10.26 2.66 14 3 C14 3.33 14 3.66 14 4 C9.05 4 4.1 4 -1 4 C-0.67 2.68 -0.34 1.36 0 0 Z " fill="#7C4A9F" transform="translate(73,676)"/>
<path d="M0 0 C-0.33 0.99 -0.66 1.98 -1 3 C-2.99609375 3.94921875 -2.99609375 3.94921875 -5.4375 4.6875 C-6.64212891 5.06455078 -6.64212891 5.06455078 -7.87109375 5.44921875 C-10 6 -10 6 -12 6 C-12 5.34 -12 4.68 -12 4 C-10.56570999 3.32645501 -9.12742943 2.66140299 -7.6875 2 C-6.88699219 1.62875 -6.08648437 1.2575 -5.26171875 0.875 C-3 0 -3 0 0 0 Z " fill="#620A9D" transform="translate(510,481)"/>
<path d="M0 0 C1.2065625 0.0309375 1.2065625 0.0309375 2.4375 0.0625 C-0.11331829 3.03845467 -2.99684437 4.50252566 -6.5625 6.0625 C-7.5525 6.0625 -8.5425 6.0625 -9.5625 6.0625 C-9.5625 5.4025 -9.5625 4.7425 -9.5625 4.0625 C-8.593125 3.588125 -7.62375 3.11375 -6.625 2.625 C-1.55430328 0.03790984 -1.55430328 0.03790984 0 0 Z " fill="#570A8A" transform="translate(437.5625,513.9375)"/>
<path d="M0 0 C0.66 0.33 1.32 0.66 2 1 C0.68 3.31 -0.64 5.62 -2 8 C-3.32 6.35 -4.64 4.7 -6 3 C-4.03533587 1.93224776 -2.03144641 0.93446535 0 0 Z " fill="#8815D2" transform="translate(296,401)"/>
<path d="M0 0 C0.66 0.66 1.32 1.32 2 2 C-0.64 3.65 -3.28 5.3 -6 7 C-6 4 -6 4 -5 2 C-3.35636866 1.27840576 -1.68949614 0.60648579 0 0 Z " fill="#6D0AAF" transform="translate(79,670)"/>
<path d="M0 0 C0.99 0 1.98 0 3 0 C3.33 1.32 3.66 2.64 4 4 C5.32 4.33 6.64 4.66 8 5 C7.67 5.66 7.34 6.32 7 7 C2.545 5.02 2.545 5.02 -2 3 C-1.34 2.01 -0.68 1.02 0 0 Z " fill="#751BB0" transform="translate(254,296)"/>
<path d="M0 0 C1.65 1.32 3.3 2.64 5 4 C3.02 4.66 1.04 5.32 -1 6 C-1 5.34 -1 4.68 -1 4 C-1.99 3.67 -2.98 3.34 -4 3 C-3.34 3 -2.68 3 -2 3 C-2 2.34 -2 1.68 -2 1 C-1.34 0.67 -0.68 0.34 0 0 Z " fill="#850AD4" transform="translate(424,199)"/>
<path d="M0 0 C0.66 0.33 1.32 0.66 2 1 C-0.14926381 3.39105598 -1.99036913 4.63278854 -5 5.75 C-5.680625 6.01296875 -6.36125 6.2759375 -7.0625 6.546875 C-9 7 -9 7 -12 6 C-10 5 -8 4 -6 3 C-4.9275 2.4225 -3.855 1.845 -2.75 1.25 C-1.8425 0.8375 -0.935 0.425 0 0 Z " fill="#650AA2" transform="translate(466,499)"/>
<path d="M0 0 C-1.59766103 0.86627399 -3.20339944 1.71766465 -4.8125 2.5625 C-5.70582031 3.03816406 -6.59914063 3.51382812 -7.51953125 4.00390625 C-10 5 -10 5 -13 4 C-12.01 3.67 -11.02 3.34 -10 3 C-10 2.34 -10 1.68 -10 1 C-3.375 -1.125 -3.375 -1.125 0 0 Z " fill="#670AA5" transform="translate(548,465)"/>
<path d="M0 0 C1.32 0 2.64 0 4 0 C4.66 0.66 5.32 1.32 6 2 C7.31747324 2.69748583 8.64914193 3.36959957 10 4 C10 4.66 10 5.32 10 6 C6.68437443 5.44739574 3.84937793 4.83174295 1 3 C0.67 2.01 0.34 1.02 0 0 Z " fill="#760ABC" transform="translate(386,353)"/>
<path d="M0 0 C5.53846154 -0.36923077 5.53846154 -0.36923077 7.875 1.5 C8.24625 1.995 8.6175 2.49 9 3 C8.67 3.66 8.34 4.32 8 5 C5.36 4.01 2.72 3.02 0 2 C0 1.34 0 0.68 0 0 Z " fill="#6F0AB1" transform="translate(277,307)"/>
<path d="M0 0 C4.12751449 0.60698743 7.3321148 2.03810791 11 4 C9.375 4.6875 9.375 4.6875 7 5 C1.33333333 2.66666667 1.33333333 2.66666667 0 0 Z " fill="#760ABC" transform="translate(109,229)"/>
<path d="M0 0 C0.66 0 1.32 0 2 0 C3.31223496 3.93670488 2.24296256 6.12488144 1 10 C-1 9 -1 9 -1.625 7.125 C-2 5 -2 5 -2 2 C-1.34 1.34 -0.68 0.68 0 0 Z " fill="#760ABC" transform="translate(113,71)"/>
<path d="M0 0 C5.29441695 -0.50423019 7.81413519 0.81076967 12 4 C11.67 4.66 11.34 5.32 11 6 C7.37 4.35 3.74 2.7 0 1 C0 0.67 0 0.34 0 0 Z " fill="#7420AC" transform="translate(358,346)"/>
<path d="M0 0 C-6.28571429 4.42857143 -6.28571429 4.42857143 -10 5 C-9 2 -9 2 -6.125 0.25 C-3 -1 -3 -1 0 0 Z " fill="#5C0A93" transform="translate(590,447)"/>
<path d="M0 0 C0.7425 0.309375 1.485 0.61875 2.25 0.9375 C4.50692176 1.8094925 6.6450153 2.47667007 9 3 C9 3.66 9 4.32 9 5 C7.68 5.33 6.36 5.66 5 6 C5 5.34 5 4.68 5 4 C4.01 4 3.02 4 2 4 C2 3.34 2 2.68 2 2 C1.01 1.67 0.02 1.34 -1 1 C-0.67 0.67 -0.34 0.34 0 0 Z " fill="#760ABC" transform="translate(288,309)"/>
<path d="M0 0 C-0.66 0 -1.32 0 -2 0 C-2.33 0.99 -2.66 1.98 -3 3 C-5.6352539 4.42446157 -7.19404974 5.16845087 -10.16796875 4.546875 C-11.07482422 4.27617188 -11.07482422 4.27617188 -12 4 C-10.56988027 3.13353333 -9.13059381 2.28218171 -7.6875 1.4375 C-6.48673828 0.72400391 -6.48673828 0.72400391 -5.26171875 -0.00390625 C-3 -1 -3 -1 0 0 Z " fill="#490A73" transform="translate(235,607)"/>
<path d="M0 0 C-0.33 1.32 -0.66 2.64 -1 4 C-3.31 4.33 -5.62 4.66 -8 5 C-8 4.34 -8 3.68 -8 3 C-2.25 0 -2.25 0 0 0 Z " fill="#8615D0" transform="translate(329,387)"/>
<path d="M0 0 C0.66 0.33 1.32 0.66 2 1 C0.25 3 0.25 3 -2 5 C-3.32 5 -4.64 5 -6 5 C-6 4.34 -6 3.68 -6 3 C-4.03533587 1.93224776 -2.03144641 0.93446535 0 0 Z " fill="#8B16D7" transform="translate(100,490)"/>
<path d="M0 0 C2.97 0.99 5.94 1.98 9 3 C8.67 3.66 8.34 4.32 8 5 C3.545 4.01 3.545 4.01 -1 3 C-0.67 2.01 -0.34 1.02 0 0 Z " fill="#730AB8" transform="translate(342,334)"/>
<path d="M0 0 C0 0.66 0 1.32 0 2 C-4.625 4.125 -4.625 4.125 -8 3 C-4.93882432 0.37613513 -4.26826873 0 0 0 Z " fill="#640AA1" transform="translate(360,548)"/>
<path d="M0 0 C0.66 0.66 1.32 1.32 2 2 C-0.375 3.5625 -0.375 3.5625 -3 5 C-3.66 4.67 -4.32 4.34 -5 4 C-5 3.34 -5 2.68 -5 2 C-3.35 1.34 -1.7 0.68 0 0 Z " fill="#8815D4" transform="translate(266,415)"/>
<path d="M0 0 C1.98 0 3.96 0 6 0 C6 1.32 6 2.64 6 4 C5.34 3.67 4.68 3.34 4 3 C3.01 3.33 2.02 3.66 1 4 C0.67 2.68 0.34 1.36 0 0 Z " fill="#850AD5" transform="translate(416,196)"/>
<path d="M0 0 C1.32 0.33 2.64 0.66 4 1 C0.79663178 3.83374881 -1.78087253 4.5205537 -6 5 C-6 4.34 -6 3.68 -6 3 C-4.35 3 -2.7 3 -1 3 C-0.67 2.01 -0.34 1.02 0 0 Z " fill="#660AA3" transform="translate(306,570)"/>
<path d="M0 0 C-0.99 1.485 -0.99 1.485 -2 3 C-5.125 3.1875 -5.125 3.1875 -8 3 C-5.53387212 -0.1151089 -3.89156016 -0.31553191 0 0 Z " fill="#550A88" transform="translate(380,541)"/>
<path d="M0 0 C2.9375 0.8125 2.9375 0.8125 6 2 C6.33 2.99 6.66 3.98 7 5 C1.25 3.25 1.25 3.25 -1 1 C-0.67 0.67 -0.34 0.34 0 0 Z " fill="#7922B2" transform="translate(152,251)"/>
</svg>
